<?xml version="1.0" standalone="no"?>
<!DOCTYPE svg PUBLIC "-//W3C//DTD SVG 20010904//EN"
 "http://www.w3.org/TR/2001/REC-SVG-20010904/DTD/svg10.dtd">
<svg version="1.0" xmlns="http://www.w3.org/2000/svg"
 width="1034.000000pt" height="1464.000000pt" viewBox="0 0 1034.000000 1464.000000"
 preserveAspectRatio="xMidYMid meet">

<g transform="translate(0.000000,1464.000000) scale(0.100000,-0.100000)"
fill="#000000" stroke="none">
<path d="M5960 14609 c-41 -22 -68 -29 -110 -29 -62 0 -114 -25 -125 -60 -8
-25 -26 -24 -145 4 -167 40 -527 -5 -750 -94 -141 -55 -303 -163 -393 -260
-37 -40 -123 -156 -191 -258 -69 -103 -148 -216 -176 -252 -130 -166 -282
-414 -353 -580 -87 -200 -183 -625 -222 -980 -8 -74 -15 -180 -15 -235 0 -55
-4 -127 -9 -160 -5 -33 -13 -114 -16 -179 l-7 -120 -52 -55 c-68 -73 -87 -103
-117 -181 -22 -61 -24 -77 -23 -250 1 -102 6 -210 12 -240 6 -30 16 -93 23
-140 22 -157 85 -314 215 -536 29 -51 68 -122 85 -158 40 -83 99 -138 214
-201 50 -27 96 -56 103 -64 17 -21 10 -186 -9 -227 -15 -30 -52 -52 -141 -84
-98 -34 -289 -125 -368 -175 -80 -51 -223 -156 -305 -225 -97 -82 -175 -133
-286 -187 -123 -59 -178 -84 -359 -163 -41 -18 -131 -60 -200 -94 -69 -34
-161 -77 -205 -95 -88 -38 -165 -78 -330 -171 -60 -34 -170 -93 -244 -131
-165 -84 -333 -196 -426 -283 -38 -36 -73 -65 -76 -66 -17 -1 -225 -244 -346
-404 -221 -293 -301 -428 -403 -687 -75 -188 -129 -454 -130 -635 0 -103 -17
-279 -31 -322 -7 -22 -10 -155 -8 -380 2 -191 2 -381 1 -422 -1 -47 4 -89 13
-113 8 -20 15 -58 15 -83 0 -25 4 -53 9 -62 5 -9 11 -105 15 -212 7 -226 13
-317 26 -380 5 -25 14 -83 20 -130 16 -126 30 -220 41 -265 5 -22 16 -80 24
-130 8 -49 20 -110 25 -135 6 -25 14 -65 19 -90 5 -25 19 -81 31 -125 12 -44
24 -92 27 -108 3 -15 9 -30 14 -33 5 -3 9 -18 9 -34 0 -16 5 -32 10 -35 6 -3
10 -21 10 -39 0 -17 4 -36 8 -42 9 -9 34 -88 48 -148 4 -16 13 -41 20 -55 8
-14 16 -42 20 -61 3 -19 9 -44 14 -55 18 -41 90 -269 90 -285 0 -9 4 -20 9
-26 5 -5 19 -38 31 -74 12 -36 28 -78 35 -95 7 -16 26 -61 41 -100 15 -38 31
-74 35 -79 5 -6 9 -16 9 -23 0 -8 9 -33 20 -55 11 -23 20 -47 20 -54 0 -7 9
-29 19 -51 19 -36 33 -69 79 -178 11 -27 26 -68 33 -90 6 -22 15 -48 20 -57 5
-10 9 -29 9 -42 0 -14 4 -27 9 -30 4 -3 14 -27 21 -53 7 -27 16 -52 21 -58 4
-5 13 -29 20 -52 6 -24 15 -43 19 -43 4 0 7 -7 7 -15 0 -8 9 -34 20 -57 12
-24 29 -61 38 -83 27 -61 59 -126 85 -170 13 -22 33 -58 44 -80 12 -22 24 -42
27 -45 3 -3 13 -18 22 -35 8 -16 27 -43 41 -60 14 -16 26 -33 26 -37 0 -5 7
-16 15 -25 8 -10 41 -49 72 -88 31 -38 67 -80 79 -91 40 -38 142 -114 153
-114 6 0 11 -3 11 -8 0 -4 15 -14 33 -21 30 -14 65 -41 52 -41 -3 0 13 -18 36
-40 l42 -40 849 0 849 0 -2 43 c-3 50 30 130 60 149 12 7 21 22 21 33 0 11 10
30 23 41 24 23 40 51 57 98 8 22 14 26 22 18 7 -7 20 -12 29 -12 16 0 17 4 7
33 -12 34 -27 49 -40 41 -4 -3 -8 0 -8 7 0 7 -10 9 -27 5 -31 -7 -88 -15 -148
-21 -22 -2 -65 -9 -95 -15 -30 -6 -68 -11 -84 -11 -16 0 -41 -8 -56 -19 -16
-11 -33 -20 -38 -20 -6 0 -23 -16 -39 -37 -24 -29 -34 -35 -49 -28 -10 4 -28
10 -39 12 -10 2 -29 10 -42 18 -20 13 -22 13 -17 0 4 -8 10 -15 15 -15 15 0
10 -40 -6 -47 -19 -7 -58 26 -51 43 4 9 -6 11 -37 8 -23 -3 -46 -9 -52 -13 -5
-4 -37 -18 -70 -31 -33 -13 -73 -34 -88 -47 -16 -13 -33 -23 -39 -23 -5 0 -17
-9 -27 -21 -23 -28 -101 -31 -130 -5 -19 18 -36 19 -181 17 -141 -2 -159 0
-154 13 4 11 14 14 30 10 18 -5 24 -2 24 11 0 12 -7 15 -30 11 -18 -2 -36 1
-44 10 -8 8 -21 14 -28 14 -8 0 -22 16 -31 35 -9 19 -21 35 -27 35 -15 0 -12
74 5 96 17 22 19 38 4 29 -7 -5 -8 5 -4 29 5 24 3 36 -4 36 -6 0 -11 14 -11
31 0 26 3 30 17 24 28 -11 103 -13 103 -2 0 22 46 106 58 107 16 0 7 71 -16
120 -9 19 -17 44 -19 54 -10 57 -107 163 -159 172 -109 20 -170 7 -180 -38 -6
-31 -45 -71 -90 -94 -29 -15 -264 -19 -264 -4 0 6 -10 8 -22 5 -21 -5 -23 -2
-25 35 -1 51 -6 56 -38 42 -14 -6 -25 -8 -25 -3 0 8 -33 24 -75 37 -43 13 -85
32 -99 43 -9 8 -19 11 -22 9 -3 -3 -43 32 -89 78 -47 46 -89 84 -95 84 -5 0
-10 5 -10 12 0 6 -11 26 -25 44 -14 18 -25 37 -25 43 0 6 -4 11 -10 11 -5 0
-10 6 -10 14 0 7 -6 19 -14 25 -8 6 -17 32 -21 57 -3 24 -10 42 -15 39 -4 -3
-6 4 -3 15 3 12 0 20 -7 20 -7 0 -10 7 -6 16 3 8 -5 32 -19 52 -14 20 -25 46
-25 57 0 12 -4 25 -9 30 -13 15 -61 156 -56 165 6 9 -23 69 -42 88 -7 7 -13
21 -13 31 0 10 -3 21 -7 24 -10 10 -13 57 -3 57 4 0 10 11 12 25 3 14 1 25 -3
25 -5 0 -9 5 -9 11 0 7 -16 27 -35 46 -32 31 -35 37 -28 75 3 23 12 53 20 67
7 14 13 35 14 46 0 11 3 14 6 7 4 -10 8 -10 19 -1 12 10 17 6 27 -20 9 -24 17
-31 39 -31 15 0 28 -5 28 -10 0 -6 8 -14 18 -17 22 -9 42 -29 42 -43 0 -6 7
-10 15 -8 9 2 21 -8 28 -22 11 -22 23 -26 67 -21 5 1 7 8 4 16 -5 11 -2 13 10
9 9 -3 16 -10 16 -16 0 -5 5 -6 10 -3 6 4 9 1 8 -6 -2 -8 10 -14 29 -16 18 -1
43 -12 55 -23 52 -48 58 -54 57 -64 -4 -33 3 -42 29 -41 15 0 26 -5 25 -11 -1
-5 15 -11 35 -12 22 -2 47 -12 62 -27 22 -20 33 -23 93 -21 37 2 67 -1 67 -5
0 -4 13 -16 30 -26 16 -9 29 -24 27 -32 -2 -14 8 -16 71 -12 9 1 26 14 36 30
13 19 31 31 53 34 42 7 72 -1 51 -14 -9 -6 -9 -9 -1 -9 8 0 10 -12 6 -35 -7
-42 7 -46 25 -6 9 20 10 36 2 55 -9 25 -8 26 18 20 15 -4 30 -12 34 -18 5 -7
8 -6 8 4 0 8 14 21 30 28 28 13 33 12 60 -11 19 -16 25 -27 17 -30 -31 -13 41
-5 91 9 39 12 61 13 72 6 9 -5 34 -13 57 -17 23 -3 48 -13 55 -22 20 -25 56
-34 80 -20 16 9 22 9 25 0 3 -7 19 -13 37 -13 44 0 92 -17 144 -51 50 -33 52
-34 52 -14 0 8 4 15 10 15 5 0 7 -7 4 -15 -5 -12 4 -15 50 -15 31 0 56 4 56 9
0 17 -29 33 -51 26 -15 -5 -20 -3 -17 6 4 12 -40 42 -117 78 -111 52 -156 70
-190 76 -22 4 -45 11 -52 17 -7 5 -17 7 -22 4 -19 -12 -23 17 -5 49 l17 33
-37 46 c-21 25 -43 44 -49 43 -5 -1 -13 9 -16 23 -5 19 -17 26 -52 35 -25 5
-44 15 -42 21 2 6 -8 16 -21 23 -13 8 -37 29 -51 47 -31 38 -41 42 -49 17 -3
-12 -4 -9 -4 7 1 32 -11 60 -26 60 -11 0 -49 52 -75 103 -8 16 -25 36 -38 45
-12 9 -63 55 -112 102 -63 60 -90 94 -95 118 -5 19 -12 30 -19 25 -6 -4 -8 0
-4 10 4 11 1 17 -7 17 -10 0 -12 7 -8 22 3 14 2 19 -6 14 -7 -4 -12 -1 -12 7
0 8 -7 20 -15 27 -9 8 -13 21 -9 36 4 14 2 24 -5 24 -6 0 -8 6 -6 13 3 6 -9
27 -25 46 -17 18 -30 39 -30 45 0 7 -11 27 -25 46 -14 19 -25 42 -25 52 0 10
-5 18 -11 18 -6 0 -9 9 -6 20 3 11 1 18 -4 14 -5 -3 -9 4 -9 15 0 11 -4 22 -9
25 -5 3 -12 22 -15 42 -5 25 -11 34 -22 30 -14 -5 -15 -2 -18 74 -1 14 -6 24
-13 22 -7 -1 -13 7 -13 18 0 11 -4 20 -10 20 -5 0 -7 15 -5 33 3 17 3 26 -1
20 -10 -23 -24 -14 -24 16 0 20 -6 30 -20 34 -14 3 -20 14 -20 32 0 14 -4 24
-9 21 -5 -3 -15 9 -22 27 -7 17 -23 47 -35 65 -13 18 -26 47 -29 65 -9 41 -38
70 -54 54 -8 -8 -11 -5 -11 12 0 12 -4 20 -8 17 -4 -2 -19 19 -32 47 -14 29
-30 58 -37 65 -7 7 -13 22 -13 33 0 10 -7 19 -15 19 -20 0 -46 62 -31 72 6 4
0 8 -14 8 -16 0 -21 3 -13 8 9 6 7 13 -9 26 -15 13 -23 15 -28 6 -5 -9 -9 -9
-14 -1 -4 6 -4 11 0 11 4 0 -2 8 -12 17 -24 21 -28 57 -12 97 l12 29 12 -34
c12 -34 12 -34 21 -10 6 16 12 20 17 13 4 -6 -1 -26 -10 -44 -12 -22 -13 -33
-5 -36 6 -2 9 -8 5 -13 -3 -5 0 -9 5 -9 6 0 11 6 12 13 0 6 5 0 10 -15 10 -26
39 -47 39 -28 0 5 9 24 21 42 13 21 18 25 14 11 -4 -16 -1 -23 14 -28 12 -4
18 -12 14 -21 -3 -7 0 -14 6 -14 6 0 11 6 11 13 0 8 4 7 10 -3 8 -12 10 -12
11 5 0 15 2 17 7 5 4 -8 17 -15 29 -14 16 1 23 -6 28 -30 6 -28 8 -29 15 -11
5 11 9 14 9 6 1 -7 7 -11 16 -7 9 3 15 0 15 -9 0 -17 16 -20 25 -4 4 6 13 8
19 6 26 -10 38 8 25 39 -20 46 -20 112 -1 100 4 -2 6 52 5 120 -2 120 -1 124
23 143 13 10 24 27 25 37 1 14 3 12 8 -6 5 -17 14 -25 29 -24 15 0 22 -5 22
-18 0 -11 5 -16 10 -13 6 3 10 2 10 -3 0 -4 16 -14 35 -22 19 -7 31 -18 28
-23 -4 -6 0 -8 10 -4 11 4 18 -1 23 -15 5 -16 8 -18 15 -7 7 12 9 11 9 -1 0
-9 9 -16 21 -16 14 0 19 5 16 18 -3 10 -1 16 4 12 17 -10 9 31 -11 56 -11 14
-20 31 -20 38 0 7 -4 10 -10 7 -5 -3 -10 0 -10 7 0 7 -20 26 -45 41 -24 16
-47 36 -50 46 -6 20 -35 24 -48 7 -5 -6 -6 2 -3 19 3 17 3 25 0 19 -7 -17 -46
-4 -40 13 3 8 1 11 -5 8 -5 -4 -18 3 -28 14 -10 12 -23 21 -29 21 -5 0 -12 9
-15 21 -3 13 -10 18 -17 14 -7 -4 -25 8 -43 28 -63 69 -87 99 -87 107 0 4 -9
10 -20 13 -11 3 -20 13 -20 22 0 9 -4 14 -9 10 -5 -3 -12 -1 -16 5 -4 6 -11 8
-16 5 -5 -4 -9 -1 -9 4 0 15 -62 75 -80 79 -8 2 -21 12 -29 22 -7 11 -19 20
-27 20 -8 0 -11 6 -8 15 4 9 0 15 -9 15 -8 0 -22 10 -30 23 -18 25 -61 77 -77
92 -52 47 -90 87 -90 95 0 5 -6 13 -12 17 -17 11 -53 80 -66 125 -8 29 -7 40
4 49 17 14 48 -8 136 -95 31 -31 61 -56 65 -56 5 0 53 -44 109 -97 124 -121
181 -172 219 -197 16 -11 34 -23 40 -28 5 -5 24 -20 40 -33 58 -49 335 -239
335 -231 0 2 -7 17 -15 32 -8 16 -15 45 -15 64 0 43 -20 82 -65 129 -63 67
-105 115 -105 123 0 4 -11 18 -25 32 -20 20 -24 32 -19 53 4 21 3 24 -5 13 -8
-12 -12 -9 -17 17 -3 18 -13 33 -21 35 -16 3 -42 63 -50 117 -4 23 -2 32 6 27
6 -4 12 -19 12 -34 1 -27 1 -27 8 3 7 29 8 29 16 -15 6 -35 9 -41 15 -25 6 16
9 10 15 -25 7 -40 9 -42 16 -20 4 14 7 19 8 12 1 -7 5 -11 10 -8 5 4 12 -7 16
-24 4 -17 10 -28 15 -25 4 3 11 -7 14 -20 4 -14 11 -23 16 -20 6 3 10 1 10 -5
0 -12 64 -106 89 -131 9 -9 30 -33 46 -53 17 -21 49 -58 72 -82 24 -25 43 -52
43 -61 0 -9 3 -13 7 -9 4 3 37 -24 73 -61 37 -38 86 -84 110 -103 24 -19 71
-64 104 -99 58 -60 135 -125 195 -163 26 -17 27 -17 28 2 1 11 -2 20 -8 20 -5
0 -9 4 -9 9 0 5 -14 23 -30 39 -17 17 -30 40 -30 51 0 12 -4 21 -10 21 -5 0
-10 9 -10 20 0 11 -4 20 -9 20 -9 0 -19 24 -31 75 -6 24 -8 26 -9 8 0 -13 -5
-23 -10 -23 -5 0 -7 10 -3 22 3 14 2 19 -6 14 -8 -5 -12 1 -12 14 0 12 -11 35
-25 52 -14 16 -25 36 -25 44 0 7 -13 27 -30 42 -16 16 -30 37 -30 46 0 9 -4
16 -10 16 -5 0 -10 6 -10 14 0 7 -9 25 -21 40 -11 14 -17 26 -13 26 5 0 3 5
-3 11 -6 6 -10 17 -7 23 2 6 -7 24 -21 40 -14 16 -25 39 -25 50 0 12 -9 32
-20 46 -11 14 -20 33 -20 43 0 10 -7 28 -16 42 -8 13 -17 41 -20 62 -3 21 -11
41 -20 46 -8 4 -12 12 -9 17 3 5 -1 23 -10 39 -8 16 -12 38 -8 47 5 13 3 16
-9 11 -12 -4 -18 3 -22 29 -4 19 -11 34 -16 34 -6 0 -10 7 -10 15 0 8 -4 15
-9 15 -5 0 -12 12 -15 26 -4 14 -18 38 -31 52 -14 15 -25 37 -25 49 0 13 -4
23 -10 23 -5 0 -10 8 -10 18 0 10 -7 27 -15 39 -21 30 -27 140 -11 188 27 78
53 48 57 -65 2 -41 9 -93 16 -115 24 -71 81 -192 100 -213 7 -7 16 -31 19 -54
4 -23 10 -35 14 -27 5 7 11 -1 15 -22 4 -19 12 -39 17 -46 5 -7 19 -30 31 -52
28 -50 99 -155 109 -159 5 -2 8 -10 8 -18 0 -8 4 -14 9 -14 5 0 27 -28 47 -62
21 -35 42 -64 46 -66 4 -2 8 -8 8 -14 0 -6 15 -34 33 -62 32 -48 97 -149 188
-291 21 -33 43 -65 49 -72 5 -7 10 -15 10 -18 0 -4 19 -32 43 -63 73 -98 110
-183 86 -198 -6 -3 -26 -6 -45 -6 -31 0 -35 -4 -46 -39 -8 -27 -14 -36 -20
-27 -6 10 -8 9 -8 -3 0 -20 24 -41 126 -112 150 -104 268 -262 281 -377 9 -79
39 -137 105 -200 64 -62 73 -81 83 -166 4 -32 25 -111 46 -174 48 -147 63
-263 55 -450 -3 -80 -8 -233 -11 -340 -6 -219 -22 -363 -39 -353 -6 3 -2 -4 9
-15 11 -12 85 -53 165 -93 200 -98 250 -142 252 -220 1 -16 5 -29 10 -29 4 0
8 -16 8 -36 0 -54 -46 -112 -121 -155 -35 -19 -113 -66 -172 -102 -60 -37
-115 -67 -123 -67 -8 0 -14 -4 -14 -8 0 -4 -20 -18 -44 -29 -40 -20 -106 -95
-106 -121 0 -5 -11 -20 -23 -34 -18 -19 -24 -38 -24 -72 -1 -25 3 -44 7 -41 5
3 10 0 12 -5 2 -7 20 -5 52 4 53 16 66 14 66 -12 1 -13 6 -10 22 11 18 25 25
28 60 22 34 -6 40 -4 45 14 3 11 26 33 52 47 25 15 51 33 56 39 36 41 258 165
305 171 23 3 50 -11 50 -26 0 -12 -294 -307 -403 -404 -54 -49 -143 -132 -197
-187 -55 -54 -105 -99 -110 -99 -6 0 -10 -7 -10 -15 0 -8 -4 -15 -9 -15 -12 0
-81 -69 -81 -81 0 -4 -7 -6 -15 -3 -9 4 -18 -3 -24 -19 -11 -28 -37 -42 -45
-24 -3 7 -3 1 0 -12 4 -14 2 -21 -3 -18 -6 4 -11 -15 -12 -42 -1 -35 3 -50 14
-55 8 -3 15 -12 15 -21 0 -12 4 -14 19 -5 13 7 22 7 26 0 11 -17 37 -11 42 10
6 21 37 27 48 10 6 -10 61 -6 95 7 8 3 22 5 31 4 9 -1 22 5 29 14 7 8 19 15
27 15 7 0 25 7 38 16 13 9 33 13 44 9 12 -4 24 0 33 12 15 21 60 43 88 43 11
0 20 5 20 10 0 6 14 10 31 10 17 0 28 4 24 10 -3 5 0 7 8 4 8 -3 22 2 31 11 9
9 16 13 16 8 0 -4 25 19 55 52 30 32 55 62 55 67 0 4 5 8 10 8 6 0 15 11 20
25 5 14 17 28 25 31 8 4 15 11 15 18 0 6 13 12 29 13 24 2 30 -3 35 -24 4 -14
4 -45 0 -69 -7 -48 13 -94 42 -94 20 0 47 62 31 72 -6 4 -8 10 -4 14 3 4 13 1
22 -6 9 -7 22 -9 32 -4 10 4 20 8 23 8 21 6 50 29 50 41 0 8 4 15 9 15 6 0 6
10 1 28 -5 15 -11 51 -13 80 -2 29 -7 55 -9 58 -3 3 -2 21 2 40 4 19 4 36 -1
39 -4 3 -4 18 2 32 5 15 8 32 5 39 -3 8 -2 15 2 18 4 2 5 28 2 58 -5 48 -7 53
-32 56 -19 2 -30 -3 -38 -17 -6 -12 -20 -21 -32 -21 -18 0 -20 4 -14 33 3 17
13 37 20 42 20 16 29 76 18 118 -14 49 1 59 87 58 80 -1 95 10 89 63 -6 52 9
33 23 -28 10 -46 9 -76 -9 -204 l-21 -150 34 -37 c36 -40 105 -163 105 -188 0
-8 6 -17 13 -20 8 -3 22 -21 31 -41 24 -51 49 -47 86 11 17 26 30 52 30 59 0
6 7 17 15 24 8 7 15 22 15 33 0 11 8 29 17 39 18 20 21 31 28 88 7 57 13 91
30 180 9 47 19 95 21 108 10 53 34 10 34 -64 0 -54 21 -157 33 -166 6 -3 20 0
32 8 28 19 35 10 35 -45 0 -86 -20 -174 -48 -215 -15 -21 -30 -44 -34 -50 -7
-11 -61 -128 -81 -176 -6 -14 -21 -38 -32 -55 -15 -20 -22 -48 -24 -84 -2 -58
-23 -121 -40 -121 -6 0 -11 -7 -11 -15 0 -8 5 -15 10 -15 6 0 10 -13 10 -30 0
-16 -5 -30 -11 -30 -8 0 -7 -5 2 -16 12 -14 14 -14 21 5 7 21 9 21 32 5 33
-21 86 -11 86 16 0 10 5 31 11 47 8 21 12 24 19 13 8 -12 13 -11 37 7 15 11
27 28 25 37 -2 11 2 14 13 10 8 -3 15 -1 15 5 0 6 9 11 20 11 12 0 25 10 32
25 8 17 17 24 28 20 10 -3 23 2 31 11 7 9 23 20 35 24 30 12 51 58 49 109 -1
28 3 45 11 48 20 7 38 82 26 107 -21 48 -28 84 -21 104 5 14 4 26 -5 34 -15
15 -14 5 -19 175 -5 153 -5 153 79 126 69 -22 87 -43 107 -127 32 -133 61
-129 182 22 22 28 52 57 67 64 15 7 32 23 39 35 11 21 19 23 90 23 42 0 79 -3
81 -7 7 -16 75 -44 115 -48 63 -5 101 -38 110 -94 4 -25 7 -58 7 -74 0 -15 4
-27 9 -27 4 0 6 -4 3 -9 -3 -4 5 -13 19 -19 19 -9 31 -8 57 5 36 17 78 52 78
64 0 10 99 108 122 120 20 11 46 1 68 -25 15 -19 72 -21 103 -4 24 12 67 58
67 71 0 4 0 10 0 15 0 4 -4 7 -10 7 -5 0 -10 3 -10 8 0 4 0 16 0 28 0 11 5 17
10 14 6 -3 10 -1 10 4 0 6 -12 11 -26 11 -14 0 -34 5 -45 10 -15 8 -24 6 -41
-10 -27 -25 -43 -26 -33 -2 16 36 25 122 30 272 3 85 7 202 9 260 5 103 -7
417 -20 553 -6 58 -5 69 7 62 11 -6 12 -5 2 6 -7 7 -13 33 -13 58 0 29 3 41 9
33 7 -11 9 -10 14 3 4 9 -1 25 -12 37 -14 14 -21 42 -26 97 -3 42 -10 99 -15
126 -5 28 -12 75 -15 105 -4 30 -15 103 -26 162 -11 59 -18 112 -14 118 10 16
28 12 21 -6 -3 -9 1 -25 9 -37 8 -12 15 -32 15 -45 0 -13 3 -21 8 -19 4 3 7
-20 6 -51 0 -32 4 -68 9 -82 6 -14 9 -33 8 -44 -3 -24 7 -66 17 -66 12 0 34
59 27 71 -4 6 -9 32 -11 57 -2 25 -8 50 -14 56 -13 13 -13 86 0 86 6 0 6 7 -1
18 -15 24 -4 72 16 72 11 0 15 -9 13 -30 -1 -18 6 -38 19 -52 16 -17 21 -35
21 -72 -1 -35 4 -52 16 -61 12 -9 15 -20 10 -39 -5 -20 -2 -31 12 -41 11 -8
22 -15 26 -15 6 0 4 91 -2 98 -3 3 -4 8 -20 92 -7 41 -17 79 -22 84 -10 13
-10 36 0 36 11 0 38 -62 51 -115 30 -124 60 -302 65 -382 4 -51 11 -139 16
-196 13 -138 15 -848 3 -962 -7 -63 -6 -95 1 -107 15 -24 66 -23 111 2 20 11
42 20 50 20 7 0 16 9 20 19 3 11 12 22 20 25 8 3 15 12 15 21 0 8 9 15 20 15
10 0 24 10 31 23 6 12 25 36 41 54 17 17 27 36 24 41 -3 6 0 17 8 24 21 22 56
99 56 124 0 13 5 26 10 29 13 8 13 100 0 144 -7 26 -6 40 6 60 15 24 33 40
130 116 34 26 96 142 99 185 2 14 5 36 8 50 4 14 9 61 11 105 6 76 9 117 22
280 13 165 17 200 24 205 4 3 11 20 15 39 11 50 37 87 58 83 9 -2 17 -9 18
-15 0 -7 2 -43 5 -82 3 -38 6 -160 8 -270 4 -230 17 -378 35 -399 7 -8 10 -20
6 -26 -4 -6 -1 -17 5 -25 14 -17 41 -115 35 -126 -3 -4 2 -9 10 -13 8 -3 15
-12 15 -21 0 -8 5 -15 10 -15 6 0 10 -9 10 -20 0 -11 5 -20 10 -20 6 0 10 -5
10 -11 0 -12 48 -73 98 -125 17 -18 32 -38 32 -44 0 -5 7 -10 15 -10 8 0 15
-3 15 -7 0 -10 90 -102 125 -128 45 -33 115 -104 115 -115 0 -6 11 -15 25 -20
36 -14 85 -52 85 -66 0 -14 63 -80 112 -118 28 -21 39 -24 69 -17 19 4 47 16
62 26 21 13 30 15 41 6 15 -13 153 3 170 20 6 5 18 9 28 9 10 0 18 4 18 8 0 5
19 14 43 21 23 7 53 18 67 24 14 6 34 12 45 14 21 4 49 16 157 66 50 24 68 38
73 57 3 14 17 41 29 60 24 36 43 150 26 150 -5 0 -7 6 -4 14 3 8 -1 25 -9 38
-8 13 -18 39 -22 58 -8 36 -24 71 -38 81 -5 3 -9 10 -9 15 -1 20 -11 34 -25
34 -8 0 -11 5 -8 10 9 15 -4 50 -19 50 -8 0 -13 11 -13 25 0 14 4 25 10 25 7
0 1 7 -11 16 -19 13 -21 18 -10 32 11 13 11 15 -4 10 -27 -11 -31 5 -6 24 13
10 17 18 11 18 -18 0 -16 29 2 36 8 4 15 12 15 19 0 8 6 20 13 27 33 36 42 72
41 177 0 58 -6 129 -13 156 -6 28 -14 70 -17 95 -27 261 -24 284 34 294 20 3
50 9 66 12 l29 7 -6 -52 c-6 -50 -3 -60 57 -184 39 -82 66 -152 70 -183 10
-83 47 -140 62 -99 4 8 12 15 19 15 19 0 47 -30 41 -45 -5 -13 49 -75 65 -75
5 0 9 -10 9 -21 0 -17 3 -19 14 -10 10 9 24 6 57 -11 24 -13 50 -31 57 -41 9
-12 22 -16 42 -12 22 4 33 -1 48 -19 14 -19 22 -22 30 -14 9 9 18 5 36 -13 41
-40 50 -45 91 -46 28 -1 45 -8 57 -23 10 -13 35 -32 56 -43 20 -11 56 -30 80
-43 23 -13 59 -27 80 -30 30 -5 41 -12 51 -35 8 -19 19 -29 31 -27 9 2 24 -3
33 -10 13 -12 18 -10 33 6 9 11 22 18 29 16 18 -7 66 40 69 68 2 13 7 31 11
41 4 10 1 27 -9 42 -9 13 -16 33 -16 43 0 11 -7 25 -15 32 -10 9 -15 9 -15 1
0 -6 -4 -11 -10 -11 -5 0 -10 7 -10 15 0 8 -7 15 -16 15 -12 0 -15 7 -12 25 3
13 1 26 -3 27 -16 6 3 48 22 48 11 0 27 8 37 18 10 10 34 18 56 19 22 1 46 9
59 21 12 11 32 25 45 31 25 13 54 73 54 112 -1 47 -22 109 -37 109 -8 0 -15 8
-15 18 0 10 -7 28 -16 40 -8 12 -13 26 -10 31 3 5 -1 12 -10 15 -8 3 -12 11
-9 16 4 6 3 10 -2 9 -21 -4 -32 3 -38 21 -3 11 -13 20 -21 20 -8 0 -14 4 -14
10 0 5 -15 17 -32 26 -18 9 -42 26 -53 39 -11 12 -40 31 -65 42 -25 11 -51 28
-59 37 -8 9 -44 31 -79 47 -35 17 -74 39 -85 50 -11 10 -30 18 -41 18 -75 0
-116 19 -116 55 0 14 -3 14 -21 4 -17 -10 -23 -10 -26 0 -3 6 -11 12 -19 12
-8 0 -14 5 -14 10 0 6 -7 10 -15 10 -7 0 -19 8 -24 17 -9 15 -12 15 -20 4 -12
-18 -54 -4 -47 16 4 9 0 14 -12 12 -44 -4 -92 2 -104 14 -7 7 -25 21 -39 30
-45 30 -51 93 -23 237 11 55 102 169 124 155 6 -3 10 0 10 7 1 7 9 23 19 35
20 24 37 31 25 11 -5 -9 -2 -9 9 1 9 7 17 10 17 5 0 -5 7 -1 15 10 8 10 21 16
29 13 9 -4 19 1 24 9 9 16 41 19 127 12 28 -3 55 -2 60 1 6 3 15 6 20 8 6 1
21 5 34 9 17 5 22 4 17 -4 -13 -21 19 -13 37 9 10 11 24 18 32 15 8 -3 15 -1
17 5 2 5 16 12 32 15 37 6 81 41 96 76 7 15 17 25 23 21 6 -4 8 0 4 10 -7 20
2 49 13 42 4 -2 7 9 6 25 -1 17 -4 30 -8 30 -5 0 -8 7 -8 15 0 8 -9 19 -20 25
-11 6 -20 16 -20 23 0 7 -14 20 -30 29 -17 9 -30 24 -30 33 0 8 -3 14 -7 13
-8 -2 -84 34 -162 77 -24 14 -47 22 -51 20 -5 -3 -16 2 -25 11 -9 9 -35 18
-57 20 -23 2 -58 15 -77 28 -24 17 -44 23 -62 19 -20 -3 -29 1 -42 20 -9 14
-26 28 -37 32 -11 4 -20 15 -20 27 0 19 4 20 42 14 22 -4 46 -10 52 -14 6 -4
20 -8 31 -9 68 -7 123 -16 140 -23 11 -4 40 -16 65 -25 25 -10 77 -33 115 -50
39 -18 89 -38 110 -46 22 -7 45 -17 51 -21 6 -4 25 -5 43 -2 25 5 30 10 26 25
-5 14 0 20 20 25 25 6 45 37 50 75 1 9 12 27 24 40 12 13 25 36 28 52 3 15 10
27 15 27 14 0 60 110 64 155 2 22 0 46 -5 54 -9 14 -15 10 -131 -74 -120 -87
-154 -104 -163 -81 -8 22 12 52 87 129 53 54 76 85 76 102 0 14 -3 25 -7 25
-5 0 -25 16 -45 36 -26 24 -38 44 -38 63 0 29 -36 92 -57 99 -7 2 -48 -31 -91
-72 -75 -74 -120 -106 -148 -106 -8 0 -14 -4 -14 -9 0 -5 -10 -13 -22 -16 -24
-7 -64 -26 -108 -51 -14 -7 -33 -14 -42 -14 -9 0 -28 -15 -42 -33 -14 -17 -26
-26 -26 -19 0 6 -7 12 -15 12 -8 0 -15 -4 -15 -10 0 -23 -19 -8 -22 18 -3 23
-7 27 -33 24 -27 -2 -68 -18 -120 -46 -11 -5 -67 -11 -125 -12 -110 -1 -146
-7 -194 -32 -27 -13 -31 -13 -43 4 -19 27 -16 44 10 44 12 0 42 11 65 25 24
14 48 22 53 19 17 -10 49 7 49 27 0 11 7 22 15 25 8 4 15 12 15 20 0 18 28 18
64 -1 36 -19 33 -20 40 18 4 24 -1 51 -20 97 -29 72 -28 117 6 172 11 18 20
41 20 50 0 9 6 21 13 25 8 4 22 22 33 38 10 17 21 32 24 35 18 17 94 136 95
149 1 9 7 29 14 44 6 16 11 37 11 48 0 13 4 18 12 13 7 -4 8 -3 4 4 -4 7 2 22
14 34 11 12 20 29 18 38 -1 8 2 31 7 50 5 19 9 39 9 43 1 4 6 11 12 15 10 6
18 27 45 118 5 17 9 46 9 64 0 18 4 47 10 64 5 17 15 50 20 74 6 23 17 42 24
42 7 0 19 11 26 25 7 13 21 27 31 30 10 3 21 20 25 38 7 35 29 72 43 72 17 0
61 40 61 56 0 9 11 28 25 43 14 15 23 31 20 36 -3 5 6 17 20 26 14 9 25 21 25
28 0 6 20 34 45 63 25 28 45 56 45 63 0 6 4 8 10 5 5 -3 7 0 4 8 -3 8 8 27 23
43 16 16 37 47 47 69 11 22 30 55 44 73 13 17 22 32 18 32 -3 0 3 9 15 21 12
12 19 29 16 40 -3 10 0 22 5 26 7 3 8 1 4 -5 -4 -7 -3 -12 3 -12 9 0 73 126
101 197 7 18 9 44 6 59 -4 15 -3 23 3 20 14 -9 51 56 52 90 0 25 2 26 9 9 5
-11 9 -14 9 -7 1 7 -4 23 -10 34 -8 15 -8 22 1 28 12 8 6 80 -6 80 -9 0 -58
-62 -84 -106 -30 -50 -66 -81 -100 -86 -15 -2 -30 -14 -37 -29 -7 -15 -20 -32
-28 -39 -13 -11 -19 -9 -37 9 -18 20 -19 26 -8 47 8 13 17 24 22 24 19 0 42
79 44 153 2 60 6 81 19 91 22 16 22 76 1 107 -8 13 -15 33 -15 44 0 11 -3 33
-7 48 -6 24 -4 28 12 25 15 -2 18 4 19 40 0 24 -3 46 -7 48 -4 3 -8 -4 -8 -15
0 -12 -4 -21 -9 -21 -13 0 -23 18 -13 24 8 5 7 161 -1 186 -6 15 -18 162 -17
190 3 48 -2 105 -8 110 -12 8 -26 43 -23 59 1 8 -2 17 -8 20 -6 4 -12 19 -13
34 -1 14 -5 24 -7 21 -3 -3 -4 -80 -1 -172 10 -425 7 -527 -23 -677 -15 -77
-33 -155 -39 -174 -6 -19 -14 -71 -19 -115 -11 -108 -19 -143 -35 -157 -8 -6
-14 -17 -14 -23 0 -7 -11 -34 -24 -62 -13 -27 -38 -84 -56 -127 -18 -43 -50
-101 -71 -130 -22 -28 -39 -55 -39 -60 0 -4 -16 -42 -36 -82 -33 -68 -44 -80
-130 -145 -52 -39 -102 -70 -111 -68 -28 5 -31 47 -5 100 13 28 22 62 20 80
-3 30 -4 31 -20 15 -9 -9 -26 -17 -37 -17 -11 0 -22 -9 -26 -20 -3 -11 -11
-20 -16 -20 -16 0 -23 -4 -50 -32 -18 -20 -30 -50 -43 -110 -29 -134 -92 -350
-115 -393 -27 -51 -99 -125 -122 -125 -22 0 -29 22 -24 80 8 101 -12 167 -56
182 -11 4 -8 13 10 38 l24 33 -20 17 c-19 15 -19 19 -6 43 7 15 11 27 9 27 -3
0 -1 12 4 26 7 18 7 31 0 39 -8 9 -8 15 0 20 5 3 10 24 10 46 0 25 7 46 19 58
11 11 20 28 20 38 1 73 10 191 16 205 4 9 2 26 -5 37 -11 21 -10 22 13 25 12
1 15 125 3 163 -18 55 -27 345 -12 340 6 -2 13 -17 17 -33 39 -174 53 -236 65
-274 7 -25 16 -64 19 -87 4 -23 13 -47 21 -54 8 -6 14 -17 14 -23 0 -7 11 -22
25 -34 l24 -21 16 52 c9 29 20 90 26 136 5 46 14 91 19 101 5 9 12 51 15 91 3
41 13 95 21 122 9 26 14 53 11 60 -2 6 1 23 8 37 7 14 15 48 18 75 3 28 9 58
13 68 4 12 2 17 -6 15 -23 -5 -21 17 2 27 18 8 22 17 20 39 -2 15 3 36 11 45
7 9 14 34 16 56 1 22 4 48 7 58 3 9 1 17 -3 17 -5 0 -9 18 -8 39 0 21 3 37 6
35 9 -5 31 176 31 266 1 46 -13 265 -17 287 -3 12 -1 24 3 27 4 3 6 29 4 58
-2 29 -5 88 -7 130 -1 42 -6 81 -9 86 -3 6 0 13 6 15 10 4 10 8 -1 15 -7 5
-11 15 -7 20 4 6 3 19 -2 29 -51 103 -63 106 -80 17 -7 -36 -22 -91 -33 -122
-21 -57 -55 -190 -85 -332 -15 -75 -44 -166 -70 -227 -8 -17 -14 -37 -14 -45
0 -8 -9 -33 -20 -56 -11 -22 -20 -55 -20 -72 0 -18 -8 -44 -18 -58 -10 -15
-22 -35 -25 -44 -4 -10 -11 -18 -17 -18 -6 0 -8 5 -3 13 6 10 13 84 14 147 1
42 32 205 40 208 13 5 11 30 -3 35 -10 4 -10 6 0 6 7 1 12 17 12 44 1 23 6 62
11 87 23 99 26 199 6 212 -23 15 -35 8 -40 -24 -7 -45 -28 -119 -38 -140 -5
-10 -9 -25 -9 -33 0 -8 -5 -15 -11 -15 -6 0 -8 -7 -5 -16 3 -8 -1 -26 -10 -38
-8 -13 -14 -28 -13 -32 2 -5 -5 -27 -15 -49 -14 -33 -20 -100 -31 -373 -36
-828 -69 -1182 -155 -1622 -10 -52 -21 -107 -25 -122 -8 -30 1 -35 79 -43 56
-5 96 -27 96 -53 0 -9 -5 -33 -11 -52 -5 -19 -17 -60 -25 -90 -8 -30 -21 -65
-29 -77 -8 -12 -24 -57 -36 -100 -12 -43 -25 -82 -29 -88 -4 -5 -18 -41 -30
-80 -16 -48 -33 -79 -56 -100 -18 -16 -41 -52 -51 -79 -10 -27 -27 -54 -38
-60 -11 -6 -25 -18 -32 -26 -16 -18 -53 -95 -53 -108 0 -5 -6 -15 -14 -21 -8
-7 -24 -37 -37 -69 -12 -31 -28 -60 -33 -64 -19 -13 -28 -9 -21 11 3 11 2 22
-3 25 -6 3 -6 25 0 53 6 27 9 53 9 58 -1 6 -3 28 -6 50 -3 22 -6 51 -6 65 -1
14 -6 75 -12 136 -9 99 -9 115 7 148 13 27 15 48 10 81 -3 25 -10 47 -14 50
-4 3 -5 20 0 39 4 18 3 55 -2 82 -16 82 -18 254 -3 254 13 0 28 37 30 78 1 32
-10 27 -34 -13 -11 -20 -27 -38 -35 -41 -12 -5 -13 -11 -4 -29 9 -19 7 -30 -6
-50 -9 -14 -24 -25 -34 -25 -26 0 -16 79 19 145 32 60 25 78 -20 46 -16 -12
-36 -21 -45 -21 -19 0 -18 -3 -6 39 11 38 -1 71 -26 71 -8 0 -17 -8 -21 -17
-3 -10 -12 -25 -18 -33 -7 -8 -15 -33 -18 -55 -5 -28 -4 -34 3 -20 6 14 9 15
9 5 1 -13 2 -13 11 0 17 26 12 -13 -5 -46 -8 -16 -15 -22 -15 -15 0 11 -3 12
-11 4 -14 -14 -14 -175 -1 -263 13 -83 14 -201 2 -265 -5 -27 -14 -156 -20
-285 -6 -129 -15 -255 -20 -280 -28 -143 -63 -277 -76 -291 -7 -8 -14 -20 -14
-26 0 -10 -33 -56 -84 -119 -38 -47 -96 -132 -96 -142 0 -5 -9 -17 -19 -26
-11 -10 -22 -28 -25 -42 -4 -13 -11 -24 -16 -24 -6 0 -10 -7 -10 -15 0 -17
-16 -20 -26 -4 -3 6 -15 9 -25 6 -10 -3 -22 -1 -25 5 -4 6 -9 6 -13 1 -3 -4
-18 -14 -33 -20 -14 -7 -34 -27 -43 -46 -9 -19 -29 -47 -46 -61 -16 -14 -29
-31 -29 -38 0 -6 -8 -20 -17 -30 -9 -10 -17 -27 -18 -37 -1 -24 -61 -81 -84
-81 -33 0 -44 16 -38 56 19 138 48 321 53 334 4 8 10 38 14 65 14 92 39 279
45 325 5 46 17 122 36 240 11 72 29 224 29 255 1 11 7 45 14 75 7 30 14 73 15
95 1 22 5 65 10 95 5 30 10 102 10 160 1 218 25 419 55 462 9 12 16 36 16 53
0 17 4 35 9 41 5 5 11 29 14 54 2 25 12 65 22 90 17 43 28 128 25 197 -1 40
15 50 43 26 12 -10 7 1 -12 24 -18 24 -37 45 -42 48 -15 10 -10 45 6 45 11 0
15 12 16 48 0 26 4 56 8 66 4 11 4 39 1 63 -4 25 -4 63 1 86 7 42 -4 134 -21
172 -5 11 -11 71 -15 133 -3 62 -8 119 -11 127 -7 17 -37 30 -32 13 2 -6 -19
-35 -46 -64 -28 -28 -63 -65 -77 -81 -39 -43 -113 -102 -155 -125 -22 -11 -44
-26 -50 -34 -6 -7 -14 -11 -17 -7 -4 3 -12 1 -20 -5 -7 -6 -55 -17 -107 -25
-91 -14 -162 -14 -280 -3 -30 3 -59 5 -63 6 -16 0 4 20 21 20 26 1 65 38 58
55 -3 9 1 18 9 21 8 4 15 11 15 18 0 6 14 17 31 25 26 11 29 17 24 42 -5 22
-3 29 9 29 9 0 16 8 16 20 0 11 6 23 14 26 8 3 12 13 9 23 -2 9 9 32 26 51 26
30 38 62 29 73 -2 1 7 15 20 31 12 16 22 37 22 47 0 10 5 21 11 24 6 4 7 19 4
35 -4 16 -1 38 5 49 9 19 8 21 -15 21 -16 0 -25 6 -25 16 0 13 7 15 30 11 26
-6 30 -3 30 14 0 16 -5 20 -20 16 -11 -3 -23 -1 -26 4 -3 5 6 9 19 9 22 0 24
4 23 38 -1 33 2 37 22 35 16 -2 22 2 22 18 0 11 7 27 15 36 12 11 13 19 5 28
-8 10 -8 19 -1 34 7 13 8 22 1 26 -14 9 -12 21 6 39 8 9 13 20 9 25 -3 6 6 8
20 5 20 -4 27 1 35 21 15 38 13 43 -15 37 -14 -2 -25 -10 -25 -17 0 -8 -8 -11
-20 -8 -28 8 -25 20 8 26 20 4 31 15 40 41 11 30 18 36 42 36 24 0 31 -6 41
-35 17 -46 54 -50 64 -5 6 26 9 29 36 23 22 -4 29 -2 30 11 1 9 2 21 3 28 0 7
18 16 40 20 21 5 50 17 65 27 14 10 41 22 59 26 51 11 37 20 -25 18 -74 -4
-131 -15 -173 -36 -18 -10 -35 -15 -37 -13 -8 7 -6 70 2 104 6 26 5 32 -9 32
-23 0 -20 17 8 43 46 43 17 101 -47 95 -34 -3 -42 0 -63 28 -25 32 -45 124
-27 124 7 0 5 16 -3 41 -15 42 -15 139 -1 139 5 0 23 16 40 35 17 19 37 35 44
35 7 0 13 5 13 10 0 16 26 12 65 -10 47 -27 95 -26 119 2 14 16 16 26 9 38
-14 22 1 115 24 149 10 14 18 33 19 42 1 9 13 32 28 51 14 19 26 45 26 56 0
12 6 22 13 22 17 0 38 89 36 150 -3 77 2 156 10 169 5 8 -1 23 -16 39 -23 25
-25 32 -19 89 5 48 3 64 -8 70 -16 9 -26 70 -30 193 -1 47 -8 117 -14 155 -7
39 -14 88 -15 110 -2 22 -12 58 -22 80 -10 22 -17 48 -16 58 1 10 -3 34 -9 53
-15 44 -15 191 0 209 6 7 7 20 4 29 -7 19 39 71 55 62 15 -10 42 5 39 21 -2 9
6 20 16 27 24 13 43 27 58 42 7 6 21 9 33 7 12 -3 29 5 44 21 14 14 31 26 38
26 8 0 16 6 19 14 3 8 27 17 54 21 29 4 65 18 87 34 51 36 71 43 94 31 14 -8
19 -7 19 1 0 8 4 8 13 1 6 -5 40 -16 75 -22 34 -7 62 -16 62 -20 0 -10 32 -6
58 9 19 10 25 9 38 -4 14 -14 11 -19 -8 -16 -5 0 -8 -3 -8 -8 0 -16 -61 -32
-76 -20 -13 11 -18 5 -15 -14 1 -5 -8 -11 -19 -14 -11 -3 -20 -9 -20 -13 0 -9
-96 -56 -133 -65 -15 -4 -27 -13 -27 -21 0 -17 -20 -19 -20 -1 -1 7 -5 6 -14
-5 -8 -11 -20 -15 -34 -11 -13 3 -22 1 -22 -6 0 -6 -16 -17 -35 -25 -19 -8
-35 -20 -35 -25 0 -6 -7 -11 -15 -11 -9 0 -20 -11 -25 -25 -5 -13 -21 -42 -36
-65 -24 -36 -27 -50 -27 -128 0 -92 2 -110 21 -155 7 -16 12 -37 12 -48 0 -11
7 -22 15 -25 8 -4 15 -18 15 -33 0 -16 11 -48 25 -72 14 -24 28 -51 31 -59 9
-19 95 -104 155 -153 45 -36 46 -37 44 -12 -2 14 1 25 6 25 5 0 9 16 9 37 0
20 -3 33 -6 30 -6 -6 -74 81 -74 94 0 14 39 16 76 3 21 -8 49 -16 62 -18 20
-4 22 -3 12 10 -7 7 -19 14 -26 14 -8 0 -14 5 -14 10 0 6 -5 10 -11 10 -16 0
-69 53 -69 68 0 8 12 4 33 -12 71 -54 180 -40 252 34 34 35 38 45 44 107 4 37
10 74 14 81 11 17 -15 41 -52 48 -26 5 -31 11 -31 34 0 34 9 60 21 60 5 0 9
-7 9 -15 0 -19 5 -19 36 2 22 14 27 14 35 2 5 -8 9 -22 9 -31 0 -23 19 -23 27
-1 4 9 15 25 25 35 13 13 16 26 12 43 -4 18 -1 27 10 31 13 5 14 9 5 20 -9 11
-5 16 20 25 l32 11 -23 22 c-21 20 -22 21 -3 24 46 7 48 13 15 31 -40 21 -50
41 -21 41 35 0 107 41 126 72 14 25 21 29 43 23 15 -4 31 -7 36 -8 5 -1 12 9
15 22 7 28 31 41 31 17 0 -20 1 -20 49 5 64 33 64 34 65 207 1 148 10 203 34
202 22 -2 229 -348 319 -535 19 -38 38 -77 43 -86 5 -9 12 -34 16 -55 9 -56
35 -93 118 -172 124 -118 238 -141 319 -66 24 21 35 38 31 48 -4 11 0 16 11
16 14 0 15 3 6 14 -9 10 -9 16 -1 21 6 4 9 14 5 23 -3 8 0 19 7 23 9 6 9 11
-1 23 -8 9 -9 16 -3 16 5 0 8 24 7 58 -2 31 -4 57 -5 57 -1 0 -4 25 -7 55 -3
30 -10 61 -15 68 -6 7 -8 15 -5 18 5 5 -5 30 -59 152 -8 17 -19 32 -24 32 -5
0 -7 6 -4 14 3 7 -2 16 -11 20 -9 3 -13 11 -9 17 4 7 -1 18 -11 25 -11 8 -18
25 -17 44 0 18 -5 33 -13 36 -8 3 -22 26 -31 50 -9 24 -23 44 -30 44 -8 0 -14
-4 -14 -10 0 -5 -6 -10 -13 -10 -19 0 -86 52 -87 67 0 6 -8 18 -18 25 -21 16
-42 61 -42 92 0 13 -9 35 -20 49 -11 14 -20 31 -21 39 0 14 -71 71 -128 104
-19 10 -46 31 -60 45 -14 15 -37 30 -51 34 -14 4 -43 22 -65 40 -22 17 -74 50
-115 74 -41 23 -86 49 -100 56 -70 40 -263 130 -300 140 -14 4 -32 13 -40 20
-8 8 -27 17 -42 20 -30 8 -33 12 -18 35 9 13 12 13 23 -2 16 -21 96 -43 109
-30 13 13 -18 86 -32 77 -7 -4 -14 2 -17 14 -3 12 -12 21 -19 21 -8 0 -14 4
-14 9 0 6 -13 17 -28 27 -16 9 -35 32 -41 51 -11 29 -17 34 -36 31 -18 -4 -22
-1 -18 11 3 9 13 22 21 28 9 7 13 16 9 19 -3 4 0 19 9 35 l15 29 37 -16 c20
-9 58 -22 84 -30 26 -8 50 -19 53 -24 3 -6 15 -10 26 -10 10 0 19 -4 19 -9 0
-5 23 -24 51 -42 28 -18 56 -37 62 -43 7 -6 26 -22 42 -35 29 -23 29 -24 5
-17 -14 4 -46 10 -72 13 -44 5 -47 4 -54 -20 -4 -19 0 -34 17 -54 33 -39 149
-139 249 -214 47 -35 98 -75 113 -89 16 -14 37 -28 47 -32 16 -6 17 -3 8 30
-21 81 -32 107 -52 124 -12 9 -15 17 -8 18 14 0 17 66 3 74 -4 3 -7 16 -7 28
1 13 -8 52 -20 88 -12 36 -25 95 -28 132 -5 62 -3 70 27 121 43 71 72 190 63
262 -14 118 -47 202 -164 415 -17 30 -44 80 -60 110 -30 57 -52 96 -93 165
-31 54 -92 137 -112 154 -10 7 -17 17 -17 22 0 5 -11 22 -24 37 -13 15 -52 60
-86 100 -71 82 -121 123 -305 246 -185 125 -335 193 -290 133 7 -10 23 -20 36
-22 26 -5 51 -25 31 -25 -7 0 -12 -5 -12 -11 0 -6 9 -9 20 -6 10 3 27 -2 37
-10 10 -8 12 -12 6 -8 -7 3 -13 2 -13 -3 0 -6 11 -13 24 -16 15 -4 25 -15 29
-33 3 -16 24 -52 46 -82 43 -56 51 -77 25 -67 -9 3 -22 6 -30 6 -8 0 -14 8
-14 19 0 10 -7 24 -15 31 -8 7 -15 18 -15 25 0 7 -7 15 -15 19 -8 3 -15 11
-15 18 0 8 -8 21 -17 30 -10 9 -26 28 -36 42 -10 14 -28 26 -40 26 -12 0 -30
12 -42 26 -14 17 -26 23 -37 19 -16 -6 -16 -9 -2 -22 23 -24 8 -27 -23 -6 -15
11 -35 18 -43 15 -8 -3 -12 -1 -8 3 4 4 3 16 -3 27 -16 30 -4 32 23 3 32 -34
56 -26 51 18 -6 48 -22 74 -54 88 -16 6 -29 15 -29 20 0 4 -9 11 -21 14 -11 4
-35 19 -52 35 -18 15 -43 31 -57 35 -14 4 -32 16 -41 26 -9 11 -20 19 -24 19
-4 0 -19 13 -34 28 -35 38 -176 127 -270 169 -42 19 -90 41 -107 49 -17 7 -58
20 -90 28 -32 8 -76 21 -96 30 -21 9 -48 16 -60 16 -13 0 -36 7 -52 15 -22 12
-65 15 -200 14 -168 -1 -172 -2 -226 -30z m1285 -651 c22 -6 51 -21 65 -33 14
-12 33 -25 43 -28 9 -4 17 -11 17 -17 0 -15 -16 -12 -30 4 -19 24 -91 54 -147
60 -63 8 -67 -1 -20 -54 34 -40 56 -67 72 -92 6 -9 31 -47 56 -85 25 -37 49
-79 53 -93 28 -97 28 -114 1 -103 -9 3 -15 18 -15 34 0 19 -12 42 -36 69 -21
23 -33 44 -28 51 5 9 2 10 -9 6 -11 -4 -18 1 -23 16 -4 12 -15 28 -26 35 -10
7 -16 17 -14 21 3 4 -8 21 -24 36 -17 16 -30 34 -30 40 0 7 -13 25 -30 41 -16
16 -30 34 -30 41 0 6 -12 21 -27 32 -27 19 -27 20 -6 21 12 0 25 5 29 11 8 13
93 6 159 -13z m-255 -38 c0 -5 -4 -10 -10 -10 -5 0 -25 -17 -45 -37 -21 -23
-35 -32 -35 -23 0 22 13 39 46 60 34 22 44 24 44 10z m415 -98 c-8 -8 -25 10
-25 26 0 13 2 13 14 -4 8 -10 13 -21 11 -22z m-521 0 c-6 -4 -19 -22 -28 -39
-18 -36 -37 -45 -29 -13 7 25 52 74 61 66 3 -4 2 -10 -4 -14z m566 -47 c5 -14
14 -25 20 -25 5 0 10 -7 10 -15 0 -18 56 -77 115 -120 21 -17 47 -37 56 -46 9
-9 30 -22 47 -30 18 -8 32 -17 32 -21 0 -5 5 -8 11 -8 6 0 42 -32 80 -71 119
-120 152 -234 109 -371 -31 -96 -61 -143 -109 -167 -33 -17 -50 -19 -115 -13
-42 4 -76 12 -76 17 0 6 30 11 67 11 93 2 136 23 162 76 97 200 35 350 -231
565 -38 29 -68 58 -68 63 0 6 -5 10 -11 10 -13 0 -79 69 -79 84 0 6 -14 25
-30 43 -34 36 -36 43 -15 43 9 0 20 -11 25 -25z m-625 -62 c-4 -10 -9 -33 -12
-50 -6 -35 -23 -46 -23 -14 0 28 21 81 32 81 6 0 7 -8 3 -17z m186 -276 c-1
-12 -15 -9 -19 4 -3 6 1 10 8 8 6 -3 11 -8 11 -12z m415 -117 c17 -70 -20
-164 -73 -186 -17 -8 -34 -18 -37 -23 -3 -5 -23 -9 -43 -9 -34 0 -35 1 -14 9
13 5 37 20 53 34 16 14 37 25 45 25 9 0 13 3 10 6 -3 4 0 16 8 28 22 31 19 86
-6 113 -19 19 -20 25 -9 38 25 30 54 14 66 -35z m-513 -20 c7 -5 36 -28 65
-51 30 -22 51 -43 48 -46 -8 -9 -97 54 -119 83 -18 25 -15 32 6 14z m157 -125
c7 -8 20 -15 30 -15 9 0 25 -9 34 -19 17 -19 17 -19 -6 -14 -12 4 -32 12 -44
20 -11 7 -24 10 -27 7 -9 -9 -38 16 -31 27 8 14 30 11 44 -6z m144 -83 c7 -12
-6 -27 -26 -30 -12 -2 -18 4 -18 18 0 20 33 29 44 12z m261 -162 c8 -13 -15
-13 -35 0 -12 8 -11 10 7 10 12 0 25 -4 28 -10z m1050 -417 c18 -14 18 -15 2
-9 -10 3 -23 6 -28 6 -5 0 -9 5 -9 10 0 14 12 12 35 -7z m-45 -13 c0 -5 -7
-10 -15 -10 -8 0 -15 5 -15 10 0 6 7 10 15 10 8 0 15 -4 15 -10z m8 -38 c3 -9
-2 -13 -14 -10 -9 1 -19 9 -22 16 -3 9 2 13 14 10 9 -1 19 -9 22 -16z m-600
-65 c2 -10 -3 -17 -12 -17 -9 0 -16 2 -16 4 0 2 -3 12 -6 21 -5 13 -2 16 12
13 10 -2 20 -11 22 -21z m-25 -62 c-7 -21 -13 -19 -13 6 0 11 4 18 10 14 5 -3
7 -12 3 -20z m5 -245 c11 0 25 -7 32 -15 22 -27 -31 -17 -65 11 -20 17 -23 22
-8 15 12 -6 30 -11 41 -11z m462 0 c0 -5 7 -10 15 -10 8 0 12 -6 9 -14 -3 -8
-12 -12 -20 -9 -8 3 -12 8 -10 11 3 3 1 11 -5 19 -9 9 -8 13 0 13 6 0 11 -4
11 -10z m155 -49 c-3 -6 -11 -11 -16 -11 -5 0 -4 6 3 14 14 16 24 13 13 -3z
m-80 -50 c-3 -6 -11 -8 -17 -5 -6 4 -5 9 3 15 16 10 23 4 14 -10z m55 -38 c0
-18 -37 -16 -44 2 -3 9 0 15 9 15 8 0 15 6 15 13 0 16 20 -13 20 -30z m34 -34
c-3 -5 0 -9 5 -9 6 0 11 -6 11 -12 -1 -8 -8 -4 -18 8 -10 11 -24 19 -32 17
-13 -4 -13 -3 -1 5 16 12 44 4 35 -9z m-2481 -1213 c-2 -30 14 -34 33 -8 11
14 15 14 22 4 5 -8 12 -13 16 -13 3 1 20 -9 36 -21 17 -12 37 -23 46 -24 23
-4 64 -33 71 -51 8 -21 -22 -42 -50 -36 -12 3 -34 17 -49 31 -21 19 -25 29
-17 39 9 10 8 13 -5 13 -9 0 -16 -6 -16 -14 0 -7 -8 -20 -17 -27 -9 -8 -14 -9
-10 -3 7 13 -87 64 -117 64 -13 0 -17 7 -14 32 2 25 9 34 28 39 36 10 45 5 43
-25z m65 -139 c27 -16 32 -24 27 -41 -4 -12 -9 -36 -12 -53 -3 -18 -9 -33 -13
-33 -4 0 -11 -11 -14 -25 -4 -16 -13 -25 -26 -25 -11 0 -20 -7 -20 -15 0 -8
-13 -21 -30 -30 -16 -9 -30 -19 -30 -24 0 -5 -6 -8 -12 -8 -7 1 -30 -3 -51 -7
-26 -6 -42 -4 -52 4 -10 9 -15 9 -15 1 0 -6 -9 -11 -20 -11 -11 0 -20 6 -20
14 0 19 57 66 80 66 24 0 88 65 96 97 4 15 0 39 -10 61 -18 37 -14 47 19 55
28 6 64 -3 103 -26z m1712 -93 c0 -8 -8 -14 -17 -14 -16 0 -16 -2 -3 -11 12
-8 10 -9 -10 -5 -14 3 -31 6 -38 6 -7 0 -10 5 -7 10 4 6 11 8 16 5 18 -11 48
5 42 22 -4 11 -2 14 5 9 7 -4 12 -14 12 -22z m-2255 -34 c-7 -22 5 -26 23 -8
8 8 12 8 12 1 0 -6 -7 -16 -15 -23 -13 -10 -19 -10 -35 5 -25 22 -25 32 -2 38
9 3 18 5 20 6 2 0 0 -8 -3 -19z m2105 1 c0 -3 -14 -6 -30 -7 -17 -1 -30 3 -30
8 0 5 4 7 9 3 5 -3 12 -1 16 4 6 10 35 4 35 -8z m-1881 -125 c9 -11 6 -12 -14
-8 -14 2 -25 8 -25 13 0 14 26 11 39 -5z m966 -1925 c-3 -11 -8 -29 -10 -41
-7 -36 -25 -52 -42 -38 -22 18 -12 62 15 66 12 2 22 10 22 18 0 8 5 14 11 14
6 0 8 -8 4 -19z m45 -21 c0 -5 -9 -10 -21 -10 -11 0 -17 5 -14 10 3 6 13 10
21 10 8 0 14 -4 14 -10z m35 -9 c3 -5 1 -12 -5 -16 -5 -3 -10 1 -10 9 0 18 6
21 15 7z m35 -30 c0 -5 -7 -12 -16 -15 -14 -5 -15 -4 -4 9 14 17 20 19 20 6z
m-177 -68 c-7 -2 -19 -2 -25 0 -7 3 -2 5 12 5 14 0 19 -2 13 -5z m-3978 -851
c5 -12 13 -22 17 -22 5 0 8 -9 8 -20 0 -14 5 -18 17 -13 10 4 14 2 10 -4 -8
-12 18 -67 46 -100 14 -16 23 -20 28 -11 5 8 11 7 23 -4 16 -16 60 -14 84 5 9
7 18 5 30 -7 17 -15 19 -14 32 10 8 14 15 36 15 47 0 12 6 22 15 22 8 0 18 15
23 38 10 42 21 47 32 15 6 -20 8 -20 12 -5 2 9 8 17 13 17 15 0 20 -31 20
-128 0 -120 27 -643 39 -772 6 -52 13 -156 16 -230 3 -74 11 -191 16 -260 14
-162 13 -464 0 -610 -25 -266 -45 -361 -77 -366 -27 -4 -34 13 -35 91 -1 39
-1 90 -1 115 -1 25 4 62 9 83 6 21 7 39 2 43 -5 2 -9 58 -9 122 -1 156 -4 214
-20 297 -6 39 -13 87 -14 108 -3 43 -28 79 -49 71 -7 -2 -26 7 -41 21 -25 23
-32 25 -56 15 -45 -19 -97 -72 -110 -114 -16 -50 -14 -171 6 -260 39 -185 53
-270 64 -381 6 -66 18 -150 26 -188 10 -48 12 -101 7 -186 -5 -109 3 -261 27
-481 13 -120 88 -513 127 -665 36 -145 63 -263 63 -280 0 -6 -11 -23 -25 -38
-21 -21 -30 -25 -44 -17 -18 9 -53 8 -109 -5 -20 -4 -40 3 -77 27 -42 28 -57
47 -95 120 -25 47 -57 101 -71 120 -35 45 -44 62 -75 154 -15 43 -37 102 -49
129 -12 28 -26 65 -29 83 -4 17 -12 32 -17 32 -5 0 -9 8 -9 18 0 9 -7 30 -15
46 -9 16 -13 36 -10 43 2 8 1 12 -3 9 -4 -2 -23 34 -41 82 -19 48 -60 141 -91
207 -96 202 -101 213 -103 234 -1 11 -3 18 -5 16 -6 -5 -32 21 -32 32 0 8 -39
91 -175 368 -19 39 -40 85 -47 103 -7 17 -17 32 -21 32 -5 0 -6 8 -2 19 4 12
0 21 -11 25 -9 4 -14 9 -11 12 3 4 0 13 -8 20 -7 8 -11 23 -8 34 4 14 0 20
-11 20 -15 0 -17 4 -20 37 -1 7 -9 18 -19 25 -9 7 -19 27 -21 45 -5 35 -19 64
-53 109 -12 17 -23 36 -23 43 0 7 -12 33 -27 59 -16 26 -27 52 -25 59 4 18
-62 114 -102 148 -20 17 -36 37 -36 45 -1 10 -4 9 -10 -5 -9 -21 -14 -8 -11
26 1 8 -3 26 -8 40 -9 21 -10 22 -12 4 -1 -14 -4 -11 -9 10 -6 24 -8 26 -9 8
-1 -24 -21 -33 -21 -10 0 8 -4 7 -10 -3 -8 -12 -10 -10 -10 8 0 13 -4 20 -10
17 -5 -3 -11 4 -11 17 -1 20 -2 21 -6 3 -9 -37 -26 -43 -19 -7 4 23 2 31 -6
26 -7 -5 -9 0 -6 14 4 15 0 23 -13 27 -19 6 -35 40 -30 63 1 8 -4 21 -12 30
-22 25 -43 192 -39 303 2 40 -1 58 -11 62 -9 3 -12 25 -11 78 1 44 -3 80 -9
88 -10 12 -9 13 2 6 11 -6 13 -2 8 22 -9 47 3 105 20 99 11 -4 13 -1 8 14 -6
19 -4 19 19 9 14 -7 26 -20 26 -31 0 -10 6 -18 14 -18 8 0 16 -7 20 -15 3 -8
13 -15 22 -15 10 0 14 -5 10 -15 -3 -8 -2 -15 3 -15 5 0 12 -11 15 -25 4 -14
11 -25 16 -25 6 0 10 -9 10 -20 0 -11 5 -20 10 -20 6 0 10 -8 10 -17 0 -15 2
-16 10 -3 8 12 10 10 11 -10 l1 -25 8 25 c7 22 8 20 10 -15 1 -32 3 -36 10
-20 8 18 9 17 9 -7 1 -15 7 -33 14 -40 6 -7 27 -44 46 -81 19 -37 40 -67 47
-67 19 0 44 -53 44 -95 0 -20 7 -52 15 -72 8 -19 15 -43 15 -53 0 -30 33 -123
56 -161 13 -20 20 -39 17 -42 -3 -4 2 -13 10 -21 8 -9 17 -21 19 -28 4 -10 10
-10 31 -1 19 9 28 22 33 50 3 21 12 43 20 49 8 7 16 37 18 76 2 36 9 74 14 84
6 11 13 28 17 39 3 11 9 15 13 10 4 -6 20 -11 35 -12 32 -2 70 -40 62 -61 -3
-7 2 -23 10 -35 8 -12 15 -18 15 -14 0 4 9 3 21 -4 18 -9 20 -8 15 8 -3 10 -1
43 4 73 13 75 19 134 11 121 -4 -5 -13 16 -20 47 -7 31 -22 69 -32 83 -10 14
-16 28 -14 31 3 3 -1 18 -10 34 -8 16 -15 33 -15 37 0 9 -45 110 -63 142 -6
11 -20 38 -30 60 -11 22 -27 45 -35 51 -9 7 -13 18 -9 29 5 12 3 16 -7 12 -16
-6 -26 12 -26 49 0 13 -4 24 -9 24 -5 0 -11 13 -14 30 -7 34 12 98 23 80 4 -6
11 -12 16 -13 5 -1 8 -17 6 -36 -2 -24 1 -32 10 -29 7 3 13 21 14 41 1 38 27
77 51 77 7 0 13 10 13 21 0 18 -2 19 -15 9 -13 -10 -15 -9 -15 9 0 21 15 27
36 13 6 -4 15 -26 19 -49 4 -24 12 -46 18 -50 6 -4 8 0 5 9 -8 20 29 19 43 -2
9 -13 10 -12 5 3 -3 9 -9 24 -12 32 -3 8 -1 15 5 15 6 0 11 -6 11 -12 0 -9 3
-8 10 2 6 10 9 -8 10 -55 2 -121 4 -144 14 -138 5 3 6 1 2 -5 -3 -6 -1 -33 5
-61 10 -46 13 -51 35 -47 13 3 24 0 24 -5 0 -6 5 -7 10 -4 9 6 13 -16 14 -66
0 -22 33 -13 39 11 2 9 0 24 -4 33 -6 11 -5 18 4 24 23 14 38 51 42 108 2 30
9 64 15 75 6 12 9 29 6 37 -4 9 -1 22 5 29 9 11 8 18 -1 29 -8 9 -8 15 -2 15
6 0 5 12 -4 29 -15 30 -14 107 1 144 10 25 39 22 32 -3 -3 -11 -1 -23 4 -26 5
-3 9 -14 9 -25 0 -11 4 -18 9 -15 5 3 19 -8 32 -25 13 -16 34 -41 47 -55 12
-14 22 -30 22 -36 0 -6 11 -8 25 -6 14 3 25 1 25 -3 0 -5 5 -9 10 -9 6 0 10
13 10 29 0 25 3 28 25 23 14 -2 25 -9 26 -16 0 -6 4 -1 9 10 5 12 4 38 -1 60
-14 57 -20 242 -9 249 6 4 8 10 5 15 -7 12 26 51 40 47 5 -2 14 -13 20 -25z
m1800 -98 c18 -7 25 -23 95 -205 27 -70 75 -182 108 -250 33 -68 63 -133 67
-144 5 -16 8 -17 15 -5 6 8 10 11 10 6 0 -6 5 -5 12 2 17 17 55 15 78 -5 12
-10 53 -48 91 -84 51 -48 76 -65 90 -62 10 3 25 1 32 -5 6 -5 28 -13 47 -17
19 -4 52 -16 72 -26 21 -11 48 -19 61 -19 12 0 28 -5 35 -12 9 -9 12 -5 12 18
0 17 -4 34 -9 40 -14 14 -81 206 -81 232 0 13 -4 20 -10 17 -16 -10 -24 26
-11 47 6 10 9 23 6 28 -4 6 -2 10 4 10 5 0 13 9 16 20 3 11 12 20 20 20 7 0
20 7 29 15 13 13 19 13 35 3 16 -10 23 -10 32 -1 9 9 39 10 105 6 127 -8 129
-7 98 63 l-25 56 38 34 c21 19 46 34 55 34 9 0 21 7 26 17 8 13 28 16 112 18
84 1 105 4 115 18 17 23 24 22 81 -15 27 -18 78 -46 114 -63 116 -55 112 -46
55 -105 -72 -74 -156 -113 -320 -150 -95 -21 -136 -33 -141 -41 -3 -5 -17 -9
-31 -9 -15 0 -23 -3 -20 -6 3 -4 -12 -27 -33 -52 -22 -25 -40 -49 -40 -54 0
-6 -9 -22 -20 -37 -12 -18 -23 -59 -30 -116 -13 -103 -22 -118 -61 -110 -25 6
-36 -1 -80 -42 -28 -26 -55 -59 -60 -72 -7 -17 -15 -22 -30 -18 -14 4 -19 2
-16 -7 3 -8 -5 -18 -19 -25 -13 -6 -24 -15 -24 -21 0 -22 -30 -8 -62 29 -18
21 -60 60 -93 86 -33 27 -80 67 -106 89 -71 64 -101 88 -105 84 -6 -6 42 -178
92 -331 51 -156 55 -219 18 -243 -19 -13 -22 -11 -47 27 -15 22 -27 47 -27 54
0 7 -7 18 -15 25 -8 7 -15 23 -15 36 0 12 -4 26 -10 29 -5 3 -13 20 -18 37
l-8 32 -23 -33 c-19 -27 -22 -36 -12 -54 19 -38 51 -148 51 -178 0 -15 -10
-44 -21 -64 -20 -34 -21 -38 -5 -78 8 -23 17 -59 18 -79 3 -38 11 -47 23 -28
3 6 11 10 16 10 6 0 8 -4 4 -10 -7 -12 32 -73 79 -123 20 -21 36 -42 36 -48 0
-5 5 -9 10 -9 6 0 10 -6 10 -14 0 -7 14 -16 30 -19 19 -4 30 -13 30 -23 0 -10
6 -25 13 -33 18 -22 50 -139 82 -301 14 -74 35 -173 45 -220 11 -47 36 -161
55 -255 65 -309 86 -409 100 -470 7 -33 16 -85 20 -115 3 -30 15 -109 25 -175
43 -262 60 -516 44 -617 -5 -27 -12 -38 -24 -38 -22 0 -26 11 -35 86 -4 32
-14 74 -21 93 -8 18 -16 62 -20 98 -3 37 -13 78 -25 96 -10 18 -19 42 -19 55
0 12 -4 22 -10 22 -5 0 -7 7 -4 15 4 9 0 15 -10 15 -18 0 -22 30 -5 47 8 8 8
17 0 31 -6 11 -11 32 -11 47 0 14 -7 28 -15 31 -13 5 -13 8 1 21 16 16 11 48
-12 71 -8 7 -14 24 -14 36 0 13 -9 31 -20 41 -12 10 -18 25 -16 32 3 7 2 13
-3 13 -9 0 -35 106 -37 150 -2 47 -15 100 -24 100 -9 0 -25 93 -21 128 1 12
-2 22 -8 22 -6 0 -11 13 -11 28 0 16 -3 32 -7 35 -3 4 -8 24 -10 45 -2 20 -8
41 -14 46 -5 6 -9 26 -9 45 0 20 -9 51 -20 69 -11 18 -20 47 -20 64 0 17 -6
39 -14 47 -8 9 -19 45 -25 81 -20 114 -24 125 -41 140 -14 13 -28 66 -75 285
-2 11 -8 37 -13 57 -6 20 -8 39 -5 41 2 3 -7 40 -21 83 -14 44 -27 89 -29 101
-2 12 -6 26 -10 29 -15 16 -7 36 13 31 13 -3 20 0 20 9 0 8 -7 14 -15 14 -8 0
-15 4 -15 10 0 5 -11 26 -25 46 -14 20 -25 49 -25 63 0 14 -11 52 -24 84 l-23
58 -25 -33 c-14 -18 -42 -51 -62 -72 -30 -34 -36 -47 -36 -85 0 -25 11 -75 24
-111 27 -70 86 -333 86 -379 0 -15 4 -41 9 -57 5 -16 17 -65 26 -109 10 -44
26 -107 36 -140 11 -33 25 -102 31 -155 6 -52 17 -104 25 -115 7 -11 13 -29
13 -40 0 -11 7 -29 15 -39 8 -11 15 -26 15 -34 0 -14 24 -42 36 -43 4 0 11 5
15 13 6 9 9 4 9 -14 0 -16 4 -28 8 -28 9 0 42 -91 42 -115 0 -8 5 -26 12 -42
6 -15 10 -37 9 -49 -5 -47 59 -247 110 -345 11 -20 19 -44 19 -54 0 -10 10
-36 21 -59 12 -22 26 -49 31 -59 5 -10 6 -22 3 -27 -3 -5 6 -34 20 -63 14 -30
25 -64 25 -76 0 -12 7 -35 15 -52 9 -16 14 -33 11 -38 -6 -10 16 -61 27 -61 4
0 7 -13 7 -29 0 -16 7 -34 15 -41 20 -17 19 -25 -9 -54 -25 -28 -61 -34 -69
-13 -3 6 -6 -14 -6 -46 -1 -63 -18 -114 -46 -137 -10 -8 -41 -15 -69 -17 -48
-1 -55 1 -89 36 -29 30 -42 37 -66 33 -24 -3 -30 -10 -36 -39 -6 -36 -15 -43
-59 -46 -15 -1 -30 -8 -35 -15 -4 -7 -14 -14 -22 -16 -8 -1 -26 -10 -41 -19
-25 -17 -28 -17 -64 2 -46 25 -129 29 -121 7 3 -8 -1 -20 -9 -26 -10 -9 -14
-9 -14 -1 0 11 -21 11 -30 0 -3 -4 -24 -10 -47 -14 l-43 -7 6 31 c8 39 -7 40
-51 7 l-32 -25 -31 67 c-17 37 -33 78 -37 92 -4 14 -14 36 -22 49 -9 14 -13
35 -9 52 4 19 1 29 -7 29 -19 0 -133 233 -117 238 6 2 10 12 10 22 0 12 -7 17
-21 16 -28 -1 -55 67 -40 99 6 11 12 29 14 40 2 11 9 19 15 18 7 -2 12 8 12
22 0 26 -24 35 -33 12 -2 -7 -16 -13 -30 -15 -33 -2 -43 32 -16 61 10 11 19
24 19 27 0 4 6 7 13 7 6 0 20 4 29 8 12 5 22 -2 35 -21 23 -35 61 -74 73 -74
5 0 17 -11 28 -25 23 -29 48 -34 37 -7 -5 9 -12 51 -16 92 -5 41 -14 87 -20
101 -6 15 -10 53 -9 85 1 33 1 119 0 191 -1 73 2 153 6 178 4 30 2 50 -6 60
-8 9 -10 34 -6 75 8 77 0 110 -26 110 -16 0 -19 5 -16 25 3 15 0 29 -8 33 -7
4 -14 30 -16 61 -3 50 -6 56 -35 70 -18 9 -34 23 -36 31 -3 8 -5 -3 -6 -25 -1
-22 -8 -58 -15 -80 -8 -22 -16 -53 -18 -70 -1 -16 -19 -47 -39 -68 l-36 -39 3
-134 c3 -124 2 -136 -16 -152 -11 -9 -20 -27 -20 -39 0 -18 6 -23 25 -23 48 0
42 -48 -13 -107 -18 -20 -26 -23 -37 -13 -8 7 -15 21 -15 31 0 10 -14 42 -32
71 -25 43 -46 104 -61 183 -1 6 2 36 6 68 7 49 13 60 33 67 28 11 40 20 97 73
22 20 34 37 27 37 -9 0 -10 3 -1 14 9 11 9 15 -1 18 -10 4 -11 10 -1 29 7 13
14 40 15 59 l3 35 18 -30 18 -30 -5 35 c-3 19 -8 118 -12 220 -7 178 -6 186
15 220 11 19 21 40 21 46 0 14 44 68 79 98 13 12 36 34 50 50 14 17 55 59 90
95 35 36 74 81 88 99 14 17 32 32 41 32 13 0 13 2 1 18 -21 26 -39 60 -39 74
0 7 -16 31 -36 53 -19 22 -42 55 -51 73 -10 21 -21 31 -30 28 -8 -3 -12 -2 -9
2 3 5 -10 16 -29 25 -58 27 -92 86 -100 170 -4 39 -11 80 -16 89 -6 11 -5 20
4 25 8 4 17 30 21 57 3 27 10 54 15 60 17 20 39 96 30 102 -5 3 -9 -1 -9 -9 0
-8 -7 -17 -14 -20 -9 -4 -13 -1 -11 6 3 7 7 35 9 62 3 28 8 73 11 100 4 31 1
78 -9 125 -17 83 -57 212 -67 220 -4 3 -14 43 -24 90 -9 47 -22 91 -27 97 -6
7 -8 19 -5 27 3 7 1 18 -5 24 -6 6 -6 12 0 16 11 6 22 -16 55 -109 14 -38 46
-125 71 -193 63 -167 76 -223 77 -322 1 -94 -10 -152 -41 -226 -29 -67 -20
-107 41 -191 53 -72 134 -163 145 -163 4 0 21 -16 40 -35 18 -19 40 -35 48
-35 22 0 20 37 -2 49 -10 5 -24 21 -31 35 -8 14 -17 23 -21 21 -11 -7 -49 90
-56 147 -4 29 -11 55 -15 59 -9 5 -38 156 -39 197 0 32 26 27 39 -8 5 -16 15
-30 20 -30 6 0 11 -5 11 -11 0 -6 7 -17 15 -25 8 -8 17 -31 21 -52 3 -20 19
-59 34 -87 16 -27 37 -66 48 -86 37 -67 47 -79 64 -79 9 0 20 6 25 13 11 17
31 117 22 111 -11 -6 -18 20 -25 89 -5 52 -3 65 11 77 22 18 47 3 61 -38 8
-26 13 -30 23 -19 10 10 16 7 31 -13 16 -20 20 -22 20 -8 0 10 9 23 19 30 14
9 17 16 10 24 -9 11 -16 56 -23 144 -1 14 -14 49 -29 78 -32 63 -83 236 -91
307 -4 28 -13 72 -22 98 -9 26 -14 54 -11 61 3 7 1 35 -4 62 -15 81 -31 235
-25 250 6 16 8 16 31 8z m-2450 -34 c-3 -10 -1 -28 4 -39 7 -11 7 -22 2 -25
-17 -11 -30 62 -14 77 11 12 15 7 8 -13z m22 -22 c-3 -8 -6 -5 -6 6 -1 11 2
17 5 13 3 -3 4 -12 1 -19z m523 2 c0 -5 -4 -10 -10 -10 -5 0 -10 5 -10 10 0 6
5 10 10 10 6 0 10 -4 10 -10z m-783 -123 c4 -13 8 -15 13 -7 4 7 7 -6 6 -28 0
-22 -3 -39 -7 -37 -7 5 7 -91 16 -104 5 -10 -27 -7 -43 3 -5 3 -15 30 -22 61
-7 30 -16 55 -19 55 -3 0 -6 11 -6 25 0 14 3 25 7 25 4 0 2 14 -4 31 -8 23 -7
37 3 55 l13 25 18 -43 c10 -24 21 -51 25 -61z m800 80 c1 -12 4 -30 5 -39 2
-9 -1 -17 -7 -18 -5 0 -11 18 -12 40 -3 41 10 57 14 17z m-470 -39 c-3 -7 -5
-2 -5 12 0 14 2 19 5 13 2 -7 2 -19 0 -25z m-19 -38 l11 25 -2 -27 c-1 -19 -7
-28 -18 -28 -10 0 -19 -8 -21 -17 -3 -15 -7 -13 -22 10 -20 30 -15 47 7 28 12
-9 13 -7 9 14 -2 14 -11 25 -18 25 -23 0 -16 18 9 22 19 3 23 -3 28 -37 5 -39
6 -39 17 -15z m-78 16 c0 -3 -4 -8 -10 -11 -5 -3 -10 -1 -10 4 0 6 5 11 10 11
6 0 10 -2 10 -4z m119 -51 l0 -20 -9 20 c-5 11 -9 29 -9 40 l0 20 9 -20 c5
-11 9 -29 9 -40z m-286 -55 c6 -14 11 -43 12 -66 0 -33 -2 -39 -12 -28 -7 7
-10 20 -6 30 5 13 3 15 -7 9 -10 -6 -12 -1 -8 23 3 18 0 29 -5 25 -6 -4 -7 5
-3 21 4 18 3 25 -4 21 -11 -7 -14 18 -3 29 4 4 12 -3 16 -16 5 -13 14 -34 20
-48z m-26 -152 c-3 -8 -6 -5 -6 6 -1 11 2 17 5 13 3 -3 4 -12 1 -19z m-520
-380 c-3 -8 -6 -5 -6 6 -1 11 2 17 5 13 3 -3 4 -12 1 -19z m2348 -402 c12 -11
34 -43 49 -71 26 -49 90 -260 102 -334 18 -109 -93 -340 -152 -317 -13 5 -19
32 -14 65 1 8 -4 17 -10 21 -9 5 -9 13 -2 27 8 15 7 25 -5 42 -18 26 -19 41
-27 298 -4 106 -9 199 -12 207 -3 8 -1 17 5 20 6 4 7 15 2 29 -19 50 18 58 64
13z m-2330 -316 c3 -5 3 -15 -1 -21 -6 -11 -23 6 -24 24 0 10 18 9 25 -3z m33
-76 c-10 -10 -28 6 -28 24 0 15 1 15 17 -1 9 -9 14 -19 11 -23z m22 -33 c0
-12 -20 -36 -20 -24 0 6 -3 19 -6 27 -5 12 -2 15 10 10 9 -3 16 -9 16 -13z
m17 -43 c-3 -7 -5 -2 -5 12 0 14 2 19 5 13 2 -7 2 -19 0 -25z m-57 -737 c0
-20 -19 -41 -36 -41 -11 0 -11 17 2 57 5 18 34 4 34 -16z m2590 -61 c0 -5 -4
-10 -10 -10 -5 0 -10 5 -10 10 0 6 5 10 10 10 6 0 10 -4 10 -10z m4327 -166
c16 -15 21 -59 9 -71 -3 -4 -12 -1 -18 5 -15 15 -48 16 -48 2 0 -5 -6 -10 -12
-10 -7 0 -24 -12 -38 -27 l-25 -26 -3 32 c-4 36 14 62 63 92 37 23 52 24 72 3z
m-5146 -143 c15 -30 30 -82 33 -115 4 -34 16 -108 27 -166 15 -80 24 -109 41
-123 22 -18 22 -18 47 12 56 66 111 159 111 187 0 13 38 54 49 54 19 0 17 -56
-4 -173 -13 -67 -28 -138 -33 -157 -5 -19 -18 -62 -27 -95 -9 -33 -21 -82 -26
-110 -11 -68 -49 -160 -79 -197 l-25 -30 -25 24 c-19 17 -26 35 -28 73 -2 28
-10 60 -18 72 -8 12 -14 29 -14 38 0 8 -7 15 -15 15 -8 0 -16 6 -16 13 -6 47
-5 87 1 87 4 0 11 7 14 15 3 9 1 15 -7 14 -29 -3 -37 2 -37 27 0 14 4 23 10
19 6 -3 10 -1 10 5 0 6 -13 19 -30 28 -20 11 -30 25 -30 40 0 13 -4 20 -10 17
-9 -6 -15 27 -11 68 1 9 -3 17 -9 17 -7 0 -10 17 -9 43 2 24 -1 49 -6 57 -9
15 -12 131 -3 146 3 5 8 25 12 45 3 20 15 44 26 54 11 10 20 27 20 37 0 37 35
14 61 -41z m609 -211 c0 -10 9 -24 19 -29 21 -12 32 -59 56 -236 8 -60 19
-140 25 -178 5 -37 10 -82 10 -100 0 -18 4 -37 9 -43 5 -5 19 -34 32 -64 16
-36 46 -77 89 -121 92 -91 109 -133 121 -287 6 -70 15 -134 20 -143 31 -59
-17 -144 -77 -137 l-29 3 -2 97 c-4 124 -32 238 -67 267 -9 7 -16 18 -16 24 0
5 -11 20 -25 33 -14 13 -25 28 -25 34 0 5 -7 10 -15 10 -8 0 -19 9 -25 21 -9
16 -14 18 -26 8 -12 -10 -14 -4 -14 35 0 32 -5 48 -15 52 -8 4 -13 10 -10 14
3 5 -1 13 -10 17 -11 7 -16 34 -20 113 -3 62 -13 134 -25 175 -13 44 -16 71
-10 73 10 4 6 57 -7 92 -7 19 -16 80 -15 100 4 40 10 138 11 163 1 20 6 27 21
27 13 0 20 -7 20 -20z m2996 -136 c-11 -28 -28 -15 -21 16 5 21 3 30 -7 31 -7
0 -4 4 7 8 16 7 21 4 23 -16 2 -14 1 -31 -2 -39z m-5796 -34 c0 -5 -4 -10 -10
-10 -5 0 -10 5 -10 10 0 6 5 10 10 10 6 0 10 -4 10 -10z m3020 -63 c0 -12 -40
-57 -51 -57 -3 0 -9 9 -12 19 -3 13 -1 18 8 14 9 -3 12 2 9 14 -4 14 1 18 20
19 15 1 26 -3 26 -9z m67 -141 c-3 -7 -15 -16 -26 -19 -16 -4 -21 0 -21 15 0
29 32 52 43 32 5 -9 6 -21 4 -28z m-57 -21 c0 -14 -4 -25 -9 -25 -5 0 -8 8 -6
18 2 9 4 20 4 25 2 19 11 4 11 -18z m-1000 -585 c0 -5 -5 -10 -11 -10 -5 0 -7
5 -4 10 3 6 8 10 11 10 2 0 4 -4 4 -10z m2553 -297 c4 -2 7 -11 7 -19 0 -13
-11 -18 -36 -15 -6 1 -17 -6 -24 -14 -10 -12 -10 -21 1 -47 7 -17 12 -45 11
-61 -3 -40 17 -69 73 -103 l47 -29 -6 -68 c-5 -53 -3 -75 11 -100 19 -36 22
-83 28 -384 3 -167 6 -206 20 -227 17 -26 17 -32 -1 -231 -7 -89 -7 -202 1
-272 7 -57 5 -64 -20 -97 -26 -34 -29 -35 -45 -21 -13 12 -20 13 -25 5 -4 -7
-18 -10 -31 -7 -13 2 -24 0 -24 -4 0 -5 -13 -15 -30 -24 -33 -17 -75 -12 -84
11 -3 7 -12 11 -20 8 -9 -4 -20 6 -30 28 -14 28 -128 141 -130 128 -2 -11 -66
36 -75 57 -6 12 -18 23 -26 23 -23 0 -47 27 -43 46 5 27 37 42 48 24 7 -11 10
-7 10 16 0 17 -7 37 -15 44 -8 7 -15 8 -15 3 0 -12 -34 -53 -44 -53 -4 0 -6 8
-5 18 2 9 -4 33 -13 52 -9 19 -19 45 -23 58 -11 39 -25 24 -26 -30 -1 -29 -4
-66 -8 -83 -7 -29 -7 -29 -15 -7 -6 18 -11 21 -22 11 -7 -6 -24 -9 -38 -5 -18
4 -25 15 -29 42 -8 47 -33 74 -68 74 -20 0 -36 11 -59 40 -19 24 -36 37 -45
33 -8 -3 -15 0 -15 6 0 6 -11 11 -24 11 -13 0 -26 8 -30 18 -14 37 -38 72 -49
72 -7 0 -25 -7 -41 -15 -37 -20 -38 -20 -77 15 -22 18 -37 26 -43 20 -17 -17
-23 -12 -48 38 -22 41 -24 55 -18 111 4 46 1 84 -13 140 -29 121 3 166 75 106
22 -19 38 -24 57 -21 21 5 31 -1 51 -29 25 -35 59 -52 115 -57 25 -2 31 1 33
20 4 23 16 29 27 12 3 -5 12 -7 19 -4 8 3 23 -6 34 -20 15 -19 29 -26 55 -26
20 0 38 -4 42 -9 3 -6 13 -10 23 -10 9 0 36 -3 60 -7 l42 -7 0 71 c0 54 -4 71
-16 76 -8 3 -12 10 -9 16 4 6 11 7 17 4 6 -4 5 2 -1 15 -7 12 -9 26 -6 31 3 5
1 11 -5 15 -5 3 -10 13 -10 21 0 30 -50 61 -50 32 -1 -7 -9 -2 -20 10 -18 22
-18 25 -4 40 13 13 17 13 24 1 14 -21 24 15 11 38 -10 17 -10 17 -11 0 0 -10
-4 -15 -10 -12 -5 3 -10 15 -10 26 0 11 4 18 9 14 15 -9 22 12 15 40 -4 15 -9
23 -13 17 -3 -5 -20 -13 -38 -16 -27 -6 -32 -4 -35 13 -3 20 -5 20 -32 6 -27
-14 -30 -14 -43 5 -8 11 -18 18 -23 15 -14 -9 -50 14 -50 30 0 8 -7 15 -15 15
-8 0 -15 6 -15 13 0 8 -9 22 -20 32 -10 9 -27 37 -36 61 -9 24 -20 44 -25 44
-4 0 -16 16 -25 35 -9 19 -22 35 -28 34 -28 -3 -36 3 -36 26 0 45 31 48 88 10
28 -19 75 -46 106 -59 56 -25 72 -44 91 -111 10 -36 19 -44 76 -73 44 -21 91
-35 141 -42 108 -13 113 -11 146 71 13 32 91 119 108 119 6 0 21 17 31 38 22
41 53 62 95 62 15 0 30 5 33 10 3 6 15 10 26 10 11 0 19 7 19 16 0 13 7 15 43
9 23 -4 45 -9 50 -12z m600 -482 c26 -15 66 -95 72 -146 3 -21 14 -56 24 -79
10 -23 21 -64 26 -92 4 -27 11 -56 15 -64 4 -8 11 -40 14 -70 4 -33 12 -58 21
-63 10 -5 13 -16 9 -33 -6 -22 -4 -24 17 -19 15 4 32 0 44 -10 19 -15 17 -16
-27 -10 -39 5 -48 3 -49 -9 -2 -25 -4 -30 -13 -44 -5 -9 -1 -20 13 -33 21 -20
29 -59 12 -59 -5 0 -16 -3 -24 -6 -18 -7 -25 12 -33 87 -4 30 -7 61 -8 69 -1
9 -6 22 -11 30 -39 60 -75 150 -75 186 0 31 -8 51 -31 80 -37 46 -47 54 -76
54 -28 0 -40 38 -23 71 7 12 15 60 18 106 5 82 6 85 28 80 13 -2 25 1 25 7 1
6 3 4 6 -5 2 -9 14 -22 26 -28z m-5423 -231 c14 -25 2 -76 -14 -60 -8 8 -7 13
4 20 12 8 13 13 3 30 -14 21 -16 30 -8 30 2 0 9 -9 15 -20z m-29 -51 l-10 -34
4 35 c4 45 4 44 11 38 3 -3 1 -21 -5 -39z m8769 16 c0 -8 -4 -15 -10 -15 -5 0
-10 7 -10 15 0 8 5 15 10 15 6 0 10 -7 10 -15z m-8763 -87 c-3 -8 -6 -5 -6 6
-1 11 2 17 5 13 3 -3 4 -12 1 -19z m8840 -10 c-3 -7 -5 -2 -5 12 0 14 2 19 5
13 2 -7 2 -19 0 -25z m-7672 -238 c-3 -5 -10 -10 -16 -10 -5 0 -9 5 -9 10 0 6
7 10 16 10 8 0 12 -4 9 -10z m2643 -208 c7 -5 10 -17 6 -28 -4 -14 -3 -16 4
-5 8 11 12 10 20 -5 13 -27 24 -104 14 -104 -12 0 -34 49 -27 60 3 5 -3 15
-14 21 -10 7 -17 18 -14 24 2 7 -3 15 -11 18 -9 4 -16 11 -16 17 0 12 20 13
38 2z m12 -143 c0 -11 -4 -18 -10 -14 -5 3 -7 12 -3 20 7 21 13 19 13 -6z
m-273 -1135 c-3 -3 -12 -4 -19 -1 -8 3 -5 6 6 6 11 1 17 -2 13 -5z m-2453
-236 c-5 -8 0 -9 15 -5 26 6 81 -10 81 -25 0 -11 -95 -6 -106 5 -7 7 2 37 11
37 4 0 3 -5 -1 -12z"/>
<path d="M2076 7005 c-18 -43 -19 -45 -8 -45 8 0 33 72 27 78 -2 3 -11 -13
-19 -33z"/>
<path d="M2101 7003 c0 -6 -4 -20 -7 -30 -5 -14 -4 -15 5 -7 7 7 11 20 8 30
-3 11 -5 14 -6 7z"/>
<path d="M2310 6735 c-8 -9 -8 -15 -2 -15 12 0 26 19 19 26 -2 2 -10 -2 -17
-11z"/>
<path d="M2297 6119 c-9 -6 -21 -7 -27 -4 -13 8 -19 -25 -22 -132 -2 -70 0
-94 10 -98 7 -3 11 -9 8 -14 -4 -5 1 -16 9 -24 8 -9 20 -28 25 -43 10 -25 11
-26 29 -9 18 16 20 16 31 -4 6 -12 8 -25 6 -30 -3 -5 1 -11 9 -15 10 -4 15
-20 15 -52 0 -37 3 -45 15 -40 16 6 35 -21 35 -51 0 -29 23 -54 39 -44 10 7
11 13 1 31 -8 15 -8 20 -1 16 17 -11 13 3 -5 22 -9 9 -13 17 -8 19 12 4 7 107
-6 111 -5 2 -10 9 -10 16 0 6 -9 30 -20 51 -11 22 -18 46 -15 53 3 8 0 10 -6
6 -8 -5 -10 3 -7 24 3 22 1 29 -9 25 -7 -3 -13 2 -13 11 0 9 -8 16 -17 16 -17
1 -17 1 0 11 18 11 18 11 -1 25 -13 9 -21 29 -24 64 -6 59 -16 73 -41 59z m28
-59 c3 -5 -1 -10 -9 -10 -9 0 -16 5 -16 10 0 6 4 10 9 10 6 0 13 -4 16 -10z
m5 -150 c0 -5 -2 -10 -4 -10 -3 0 -8 5 -11 10 -3 6 -1 10 4 10 6 0 11 -4 11
-10z m57 -117 c-7 -7 -37 22 -37 35 0 6 6 12 13 15 12 4 34 -40 24 -50z m63
-109 c0 -8 -4 -12 -10 -9 -5 3 -10 10 -10 16 0 5 5 9 10 9 6 0 10 -7 10 -16z"/>
<path d="M2504 5530 c1 -16 4 -30 9 -30 4 0 7 -7 7 -16 0 -8 7 -22 15 -31 10
-9 13 -23 9 -36 -6 -19 -5 -20 10 -5 18 19 21 38 5 38 -6 0 -9 7 -5 15 3 8 1
15 -4 15 -6 0 -10 7 -10 15 0 8 -5 15 -11 15 -5 0 -8 3 -5 8 2 4 -1 15 -8 25
-12 15 -13 13 -12 -13z"/>
<path d="M5170 6275 c-8 -9 -8 -15 -2 -15 12 0 26 19 19 26 -2 2 -10 -2 -17
-11z"/>
<path d="M4745 6230 c3 -5 10 -10 16 -10 5 0 9 5 9 10 0 6 -7 10 -16 10 -8 0
-12 -4 -9 -10z"/>
<path d="M4685 6170 c-20 -27 -42 -50 -48 -50 -7 0 -20 -12 -29 -28 -37 -58
-44 -68 -70 -99 -14 -17 -29 -46 -33 -65 -4 -18 -11 -37 -15 -43 -12 -17 -19
-55 -9 -55 21 0 125 122 177 208 18 29 32 54 32 57 0 2 14 26 30 52 17 26 30
53 30 60 0 28 -30 11 -65 -37z"/>
<path d="M4230 5351 c0 -17 18 -21 24 -6 3 9 0 15 -9 15 -8 0 -15 -4 -15 -9z"/>
<path d="M4038 5068 c-2 -13 -1 -36 3 -53 l7 -30 1 28 c0 15 6 27 11 27 15 0
12 26 -4 39 -11 9 -14 7 -18 -11z"/>
<path d="M4060 5020 c0 -5 5 -10 10 -10 6 0 10 5 10 10 0 6 -4 10 -10 10 -5 0
-10 -4 -10 -10z"/>
<path d="M4327 4773 c-4 -3 -7 -13 -7 -22 1 -13 3 -13 11 2 11 19 8 33 -4 20z"/>
<path d="M4242 4688 c-17 -17 -15 -23 13 -36 14 -6 25 -18 25 -27 0 -18 5 -18
30 -5 16 9 24 6 42 -15 12 -14 25 -25 29 -25 3 0 11 18 17 41 l10 41 -31 -5
c-21 -3 -46 4 -76 19 -52 28 -44 27 -59 12z"/>
<path d="M4296 4595 c-11 -8 -15 -15 -10 -15 6 0 19 7 30 15 10 8 15 14 9 14
-5 0 -19 -6 -29 -14z"/>
<path d="M5270 2785 c-15 -28 -8 -50 23 -69 24 -15 30 -3 20 45 -10 51 -24 59
-43 24z"/>
<path d="M5012 2669 c-1 -12 -9 -15 -27 -11 -23 4 -25 1 -25 -30 0 -19 6 -43
14 -53 13 -18 15 -18 30 -2 13 12 16 29 13 64 -2 27 -4 41 -5 32z"/>
<path d="M4967 2533 c-4 -3 -7 -11 -7 -17 0 -6 5 -5 12 2 6 6 9 14 7 17 -3 3
-9 2 -12 -2z"/>
<path d="M5143 2316 c-24 -24 -30 -37 -26 -59 3 -15 10 -27 15 -27 5 0 8 -6 6
-12 -3 -18 31 -80 41 -73 9 5 21 -41 21 -81 0 -27 44 -75 63 -68 14 5 17 47 5
60 -19 18 3 104 26 104 6 0 27 14 46 30 19 17 29 29 21 28 -9 -2 -18 12 -25
39 -15 56 -30 71 -53 52 -10 -9 -30 -23 -46 -32 -27 -17 -27 -17 -38 10 -6 15
-12 33 -13 40 -4 22 -11 21 -43 -11z"/>
<path d="M5020 2240 c0 -5 7 -10 16 -10 8 0 12 5 9 10 -3 6 -10 10 -16 10 -5
0 -9 -4 -9 -10z"/>
<path d="M5085 2240 c3 -5 10 -10 16 -10 5 0 9 5 9 10 0 6 -7 10 -16 10 -8 0
-12 -4 -9 -10z"/>
<path d="M4808 1985 c3 -19 8 -23 15 -16 8 8 7 16 -5 27 -14 14 -15 14 -10
-11z"/>
<path d="M5245 1771 c-7 -23 10 -73 19 -51 6 17 9 40 7 58 -2 18 -19 14 -26
-7z"/>
<path d="M8138 12053 c7 -3 16 -2 19 1 4 3 -2 6 -13 5 -11 0 -14 -3 -6 -6z"/>
<path d="M8180 12025 c0 -8 2 -15 4 -15 2 0 6 7 10 15 3 8 1 15 -4 15 -6 0
-10 -7 -10 -15z"/>
<path d="M8154 9221 c20 -22 14 -43 -9 -34 -12 4 -14 -3 -10 -37 3 -24 8 -47
11 -51 2 -4 -4 -13 -15 -19 -21 -10 -61 4 -61 22 0 11 14 10 27 -3 7 -7 12 -5
15 8 4 15 0 18 -21 17 -14 -1 -31 3 -38 8 -8 6 -24 -16 -53 -73 -38 -74 -41
-86 -35 -131 7 -48 7 -49 -18 -44 -23 4 -26 1 -30 -37 -3 -23 -11 -64 -18 -92
-12 -47 -14 -70 -18 -168 -1 -30 -8 -45 -31 -65 -16 -15 -30 -35 -30 -45 0
-12 -6 -17 -17 -15 -11 2 -17 11 -15 22 2 10 -1 15 -7 12 -6 -4 -7 4 -1 24 5
16 6 30 2 30 -7 0 -48 -85 -65 -135 -5 -16 -18 -41 -27 -55 -9 -14 -24 -41
-33 -61 -9 -20 -23 -42 -32 -49 -8 -7 -15 -18 -15 -25 0 -6 -9 -20 -19 -29
-11 -10 -31 -34 -45 -55 l-26 -37 95 -205 c53 -112 100 -212 106 -222 5 -9 22
-50 38 -90 16 -39 43 -102 60 -139 17 -37 33 -80 37 -95 4 -15 11 -37 17 -48
27 -51 17 -143 -33 -318 -17 -56 -30 -112 -30 -125 0 -53 211 -487 240 -495
15 -4 19 7 28 67 11 72 11 111 0 122 -10 10 3 34 18 34 11 0 13 31 11 160 -1
122 1 159 10 156 12 -5 24 36 23 79 -1 49 12 171 21 186 5 10 9 51 10 91 1 55
3 67 10 48 7 -19 8 -15 5 22 -2 26 2 52 8 58 6 6 10 44 9 90 -1 44 2 80 7 80
5 0 8 8 8 18 -1 43 15 441 19 476 4 27 2 37 -6 32 -6 -4 -11 -3 -11 3 0 5 4
12 8 15 5 3 10 31 11 63 1 32 5 59 9 61 4 1 7 35 6 75 -1 39 5 106 13 147 8
41 18 98 23 125 4 28 16 70 25 95 22 58 37 135 36 182 -1 30 2 36 14 32 21 -9
19 -1 -15 49 -16 25 -30 49 -30 54 0 15 -65 83 -91 97 -20 10 -24 19 -22 51 2
28 -4 47 -23 72 -14 18 -30 33 -36 33 -6 0 -3 -9 6 -19z m91 -226 c50 -44 48
-60 -3 -28 -34 22 -72 56 -72 66 0 18 29 3 75 -38z m-174 -40 c1 -17 -18 -17
-25 0 -4 11 -1 15 10 13 8 -2 15 -7 15 -13z m259 -40 c7 -9 10 -18 7 -21 -10
-11 -37 5 -37 21 0 19 14 19 30 0z"/>
<path d="M8100 9209 c0 -5 5 -7 10 -4 6 3 10 8 10 11 0 2 -4 4 -10 4 -5 0 -10
-5 -10 -11z"/>
<path d="M8347 9073 c-14 -14 -6 -41 25 -81 35 -46 48 -52 48 -24 0 10 5 23
11 29 7 7 0 21 -27 47 -38 37 -46 41 -57 29z"/>
<path d="M6963 8654 c-28 -32 -28 -38 -2 -63 19 -18 22 -18 49 -3 17 10 26 22
22 31 -3 9 -1 12 6 7 23 -14 0 23 -23 38 -30 20 -26 21 -52 -10z"/>
<path d="M9180 8063 c0 -7 0 -15 0 -18 0 -3 -8 -17 -19 -32 -42 -63 -69 -198
-91 -463 -5 -63 -15 -158 -21 -210 -6 -52 -12 -104 -13 -115 -2 -11 -8 -33
-15 -50 -20 -48 -25 -93 -11 -110 11 -13 10 -103 -2 -189 -2 -11 6 -21 20 -27
15 -6 21 -5 17 1 -3 6 0 10 8 10 18 0 29 24 21 45 -4 8 -1 15 5 15 6 0 11 6
11 14 0 7 8 24 18 37 26 33 46 111 57 213 5 54 15 118 22 151 2 11 3 77 3 147
0 70 4 129 9 132 10 6 10 75 0 91 -8 13 -5 46 5 63 4 7 6 32 5 55 -2 24 0 47
3 52 3 6 6 26 7 45 1 19 3 54 5 78 2 23 0 42 -4 42 -4 0 -6 9 -3 19 4 15 0 20
-16 18 -12 -1 -21 -7 -21 -14z"/>
<path d="M7439 7458 c-17 -65 -15 -194 5 -252 10 -28 19 -67 21 -88 2 -21 12
-50 23 -66 26 -38 52 -112 52 -149 0 -18 5 -35 10 -38 6 -4 8 -10 5 -15 -9
-14 12 -21 23 -7 7 8 8 33 3 70 -4 31 -7 74 -7 97 1 22 -3 39 -9 37 -6 -1 -10
2 -10 8 0 5 5 9 12 7 6 -1 14 2 18 8 3 5 -1 10 -9 10 -9 0 -16 7 -16 15 0 8
-9 24 -20 35 -11 11 -20 22 -20 25 0 3 9 1 20 -5 14 -7 20 -7 20 0 0 17 -5 25
-12 23 -5 -2 -8 4 -8 12 0 8 -4 15 -9 15 -9 0 -61 96 -61 113 0 4 5 5 10 2 6
-3 10 0 10 8 0 8 -6 17 -14 20 -9 4 -12 14 -9 26 3 13 1 21 -7 21 -8 0 -11 11
-8 30 3 17 1 33 -4 36 -4 3 -8 4 -9 2z"/>
<path d="M7723 6968 c-14 -18 -23 -58 -13 -58 14 0 38 46 31 59 -6 9 -10 9
-18 -1z"/>
<path d="M8837 6889 c-12 -13 -15 -25 -9 -35 7 -13 12 -12 33 5 13 11 18 20
11 21 -7 0 -11 4 -7 9 11 19 -12 19 -28 0z"/>
<path d="M8795 6850 c-3 -5 -15 -10 -26 -10 -10 0 -19 -4 -19 -9 0 -5 -7 -17
-17 -26 -10 -11 -16 -34 -17 -66 -1 -27 -5 -49 -10 -49 -4 0 -6 -13 -4 -30 2
-16 1 -31 -4 -32 -5 -2 -5 -14 1 -28 10 -25 10 -25 10 -2 1 13 5 20 11 17 6
-3 10 1 10 9 0 8 6 21 13 28 21 23 37 57 37 78 0 12 7 20 16 20 11 0 15 6 11
19 -3 11 1 29 9 40 8 10 11 26 8 35 -7 18 -20 21 -29 6z"/>
<path d="M7630 6807 c-25 -20 -40 -59 -43 -112 -2 -46 0 -50 22 -53 21 -3 23
0 19 22 -3 14 -1 27 4 28 5 2 12 24 15 48 3 25 10 48 16 51 10 7 1 29 -11 29
-4 0 -14 -6 -22 -13z"/>
<path d="M8417 6645 c-4 -8 -2 -17 4 -21 6 -4 6 -11 -2 -20 -9 -11 -8 -14 5
-14 12 0 16 9 16 35 0 36 -13 47 -23 20z"/>
<path d="M7705 6560 c-4 -12 -8 -36 -10 -53 -2 -18 -18 -71 -35 -119 -39 -109
-34 -123 64 -184 62 -38 96 -49 81 -24 -3 5 -7 21 -9 37 -2 15 -15 87 -29 158
-15 72 -28 145 -29 164 -3 40 -23 52 -33 21z"/>
<path d="M8686 6545 c-3 -9 -6 -29 -5 -43 1 -22 3 -19 10 12 10 40 6 60 -5 31z"/>
<path d="M8845 6550 c3 -5 8 -10 11 -10 2 0 4 5 4 10 0 6 -5 10 -11 10 -5 0
-7 -4 -4 -10z"/>
<path d="M9611 6348 c-7 -18 -21 -51 -31 -73 -9 -22 -30 -84 -45 -137 -40
-142 -128 -310 -215 -408 -63 -72 -130 -159 -130 -169 0 -5 -27 -35 -60 -67
-33 -31 -60 -61 -60 -67 0 -5 -15 -24 -32 -41 -18 -17 -32 -37 -30 -43 2 -7
-4 -13 -12 -13 -9 0 -17 -15 -21 -40 -6 -36 -9 -39 -27 -29 -23 13 -35 2 -44
-43 -4 -15 -12 -29 -20 -32 -8 -3 -14 -16 -14 -30 0 -18 -4 -23 -18 -19 -13 3
-22 -4 -30 -22 -7 -14 -17 -23 -22 -20 -6 3 -10 -1 -10 -10 0 -8 -7 -18 -15
-21 -18 -7 -20 -65 -4 -95 10 -20 11 -20 30 2 13 15 19 18 20 8 0 -8 6 2 13
21 12 33 13 33 19 10 5 -20 9 -22 19 -12 6 6 20 12 29 12 9 0 19 7 23 15 3 10
19 15 46 15 27 0 43 5 46 15 4 8 12 15 20 15 8 0 14 5 14 11 0 5 5 7 10 4 6
-3 10 2 10 11 0 13 3 15 11 7 12 -12 36 -7 57 13 14 15 16 28 2 19 -13 -8 -13
5 0 25 6 10 10 11 10 3 0 -7 5 -13 11 -13 6 0 9 9 6 20 -4 15 0 20 14 20 10 0
19 4 19 9 0 5 14 12 30 16 19 4 30 13 30 24 0 9 6 23 12 29 10 10 6 13 -22 12
-34 -2 -79 5 -86 13 -2 2 1 18 7 36 9 26 15 30 33 25 11 -4 18 -3 14 1 -8 9
34 45 52 45 9 0 10 3 1 14 -9 11 -6 17 15 30 14 10 30 30 35 45 11 30 94 95
110 86 5 -4 9 1 9 9 0 9 5 16 10 16 6 0 10 7 10 14 0 18 37 59 68 75 19 10 22
18 18 37 -5 17 -2 26 8 30 8 3 18 20 22 37 3 17 14 45 24 61 19 35 31 85 33
134 0 17 6 32 12 32 8 0 11 25 9 80 -1 44 2 80 6 80 5 0 7 35 5 78 -2 42 -4
85 -4 96 -1 16 -3 17 -18 5 -15 -12 -16 -12 -10 4 12 31 -8 18 -22 -15z m-478
-1040 c11 -5 14 -14 10 -21 -4 -7 -9 -32 -10 -57 0 -25 -2 -49 -2 -54 -1 -5
-15 6 -32 23 -24 25 -30 40 -27 62 3 17 -1 34 -9 40 -7 6 -13 15 -13 20 0 10
56 1 83 -13z"/>
<path d="M8481 6348 c0 -7 4 -22 9 -33 8 -18 9 -17 9 7 1 15 -3 30 -9 33 -5 3
-10 0 -9 -7z"/>
<path d="M7531 6211 c-14 -47 -14 -51 -1 -51 6 0 10 7 10 15 0 8 5 15 10 15
12 0 13 47 1 54 -4 3 -13 -12 -20 -33z"/>
<path d="M9499 5623 c-15 -4 -15 -8 -2 -41 7 -20 16 -45 20 -54 5 -17 25 -26
21 -10 -1 4 2 18 6 31 5 13 4 26 -1 30 -5 3 -13 15 -18 27 -6 11 -17 18 -26
17z"/>
<path d="M9370 5460 c0 -5 5 -10 10 -10 6 0 10 5 10 10 0 6 -4 10 -10 10 -5 0
-10 -4 -10 -10z"/>
<path d="M1581 5394 c0 -11 3 -14 6 -6 3 7 2 16 -1 19 -3 4 -6 -2 -5 -13z"/>
<path d="M9321 5344 c6 -8 15 -14 19 -14 4 0 10 6 13 14 4 9 -2 14 -19 14 -20
0 -22 -3 -13 -14z"/>
<path d="M1511 4713 c-1 -12 11 -31 27 -43 24 -20 27 -20 30 -5 2 10 -5 27
-17 38 -16 16 -21 18 -22 7 0 -10 -3 -8 -9 5 -8 19 -9 19 -9 -2z"/>
<path d="M1830 4470 c0 -5 5 -10 11 -10 5 0 7 5 4 10 -3 6 -8 10 -11 10 -2 0
-4 -4 -4 -10z"/>
<path d="M1516 4365 c4 -8 10 -15 15 -15 5 0 9 7 9 15 0 8 -7 15 -15 15 -9 0
-12 -6 -9 -15z"/>
<path d="M1512 4331 c-11 -7 -11 -9 2 -14 10 -4 16 -1 16 8 0 17 -1 17 -18 6z"/>
<path d="M1221 4295 c0 -5 4 -19 8 -29 7 -19 8 -19 13 2 4 12 2 20 -2 17 -5
-3 -11 1 -13 7 -3 7 -5 9 -6 3z"/>
<path d="M1531 4284 c0 -11 3 -14 6 -6 3 7 2 16 -1 19 -3 4 -6 -2 -5 -13z"/>
<path d="M5816 2703 c-4 -9 -2 -21 4 -27 7 -7 10 -2 10 17 0 31 -5 34 -14 10z"/>
<path d="M5695 2621 c-6 -11 9 -23 19 -14 9 9 7 23 -3 23 -6 0 -12 -4 -16 -9z"/>
<path d="M5822 2499 c3 -8 0 -21 -7 -29 -11 -13 -9 -18 12 -33 l24 -19 -3 43
c-2 25 -9 44 -17 47 -8 3 -12 -1 -9 -9z"/>
<path d="M705 2259 c-4 -11 -4 -23 -1 -26 3 -4 6 1 6 10 0 8 5 17 12 19 9 3 9
6 1 11 -7 4 -14 -1 -18 -14z"/>
<path d="M750 2260 c0 -5 5 -10 10 -10 6 0 10 5 10 10 0 6 -4 10 -10 10 -5 0
-10 -4 -10 -10z"/>
<path d="M5759 2248 c-4 -14 -5 -75 -2 -85 3 -6 10 -10 17 -7 13 5 9 81 -5 90
-5 3 -9 4 -10 2z"/>
<path d="M5711 2214 c0 -11 3 -14 6 -6 3 7 2 16 -1 19 -3 4 -6 -2 -5 -13z"/>
<path d="M5730 2200 c0 -5 5 -10 11 -10 5 0 7 5 4 10 -3 6 -8 10 -11 10 -2 0
-4 -4 -4 -10z"/>
<path d="M1016 2142 c-3 -6 -1 -14 5 -17 15 -10 25 3 12 16 -7 7 -13 7 -17 1z"/>
<path d="M1890 1929 c0 -5 5 -7 10 -4 6 3 10 8 10 11 0 2 -4 4 -10 4 -5 0 -10
-5 -10 -11z"/>
<path d="M9170 1920 c-8 -5 -11 -12 -7 -16 4 -4 13 -2 19 4 15 15 7 24 -12 12z"/>
<path d="M1687 1899 c-22 -17 -25 -24 -16 -35 7 -8 12 -28 11 -44 -1 -40 12
-38 38 5 12 19 26 35 31 35 5 0 9 7 9 16 0 8 -4 13 -9 10 -5 -3 -11 3 -14 14
-6 25 -15 25 -50 -1z"/>
<path d="M5741 1804 c0 -11 3 -14 6 -6 3 7 2 16 -1 19 -3 4 -6 -2 -5 -13z"/>
<path d="M3080 1717 c0 -7 9 -18 20 -25 12 -7 18 -16 15 -21 -2 -5 3 -8 13 -7
9 0 16 -5 15 -11 -5 -22 45 -15 58 8 17 34 -22 69 -78 69 -28 0 -43 -4 -43
-13z"/>
<path d="M6575 1710 c-12 -4 -27 -15 -34 -24 -11 -13 -11 -16 0 -16 8 0 3 -8
-11 -16 -14 -9 -31 -28 -38 -42 -15 -31 -16 -88 -2 -97 6 -3 10 -24 10 -46 0
-21 3 -39 8 -39 4 0 13 -14 21 -31 7 -16 25 -41 39 -54 16 -15 23 -30 19 -44
-2 -11 0 -22 6 -24 6 -2 7 -9 3 -16 -5 -7 -14 -10 -22 -7 -8 3 -14 1 -14 -5 0
-16 29 -22 46 -9 11 10 18 10 26 2 13 -13 87 -15 189 -6 62 6 66 8 60 28 -13
46 -86 113 -112 104 -35 -12 -64 64 -33 87 16 11 11 41 -5 31 -4 -3 -14 5 -22
16 -8 12 -22 28 -31 37 -10 8 -18 20 -18 26 0 6 -9 17 -20 25 -11 8 -20 22
-20 32 0 9 -5 20 -11 24 -7 4 -9 21 -6 40 6 36 4 38 -28 24z"/>
<path d="M2903 1610 c-37 -30 -23 -56 17 -30 13 9 13 10 0 10 -12 0 -13 2 -1
9 7 5 12 13 10 19 -2 6 -13 3 -26 -8z"/>
<path d="M2800 1540 c0 -5 7 -7 15 -4 9 4 15 0 15 -10 0 -16 12 -21 23 -9 4 3
2 12 -4 20 -13 15 -49 18 -49 3z"/>
<path d="M2715 1527 c-10 -8 -15 -19 -11 -26 4 -6 0 -14 -8 -17 -9 -3 -14 -10
-11 -14 6 -10 55 0 55 11 0 5 7 6 15 2 9 -3 22 2 29 13 12 16 11 20 -11 31
-31 16 -35 16 -58 0z"/>
<path d="M2316 1367 c3 -10 9 -15 12 -12 3 3 0 11 -7 18 -10 9 -11 8 -5 -6z"/>
<path d="M2180 1310 l-25 -20 25 0 c18 0 21 -3 11 -9 -11 -7 -10 -13 3 -34 17
-24 49 -40 60 -29 10 9 7 42 -4 42 -5 0 -10 -5 -10 -12 0 -9 -3 -8 -12 1 -10
11 -10 14 0 18 17 7 15 27 -6 46 -16 14 -19 14 -42 -3z"/>
<path d="M2253 1296 c14 -11 15 -15 5 -19 -7 -3 -8 -6 -3 -6 18 -1 38 17 31
28 -4 6 -17 11 -29 11 -21 -1 -21 -1 -4 -14z"/>
<path d="M6320 1291 c0 -5 -41 -8 -93 -7 -51 2 -102 -1 -113 -5 -16 -6 -14 -8
11 -10 74 -6 93 -9 135 -18 81 -17 250 -25 250 -12 0 7 -8 11 -17 10 -30 -5
-93 11 -93 23 0 6 -3 9 -6 6 -3 -4 -21 0 -40 8 -19 8 -34 10 -34 5z"/>
<path d="M7615 1253 c-36 -9 -37 -20 -7 -54 16 -19 40 -54 52 -79 13 -24 33
-60 45 -80 13 -19 26 -54 30 -77 3 -22 13 -49 20 -60 20 -25 18 -59 -4 -118
-94 -245 -111 -291 -111 -298 0 -4 -10 -29 -21 -55 -62 -136 -62 -133 -41
-156 15 -16 19 -37 20 -95 l0 -73 57 -54 56 -54 227 1 c125 0 221 3 215 6 -7
2 -13 11 -13 20 0 9 -6 12 -19 8 -10 -3 -23 1 -31 9 -10 12 -8 21 9 45 12 16
21 34 21 40 0 15 6 14 45 -12 19 -12 44 -42 57 -67 20 -40 27 -45 60 -48 33
-3 38 0 44 22 5 19 -2 35 -31 69 -21 25 -48 50 -61 56 -24 11 -33 45 -14 56
17 10 11 84 -10 125 -11 22 -20 46 -20 54 0 9 -9 20 -19 26 -11 5 -23 20 -27
32 -3 13 -12 30 -19 38 -8 8 -17 29 -21 45 -3 17 -12 37 -19 45 -7 8 -29 47
-50 85 -20 39 -41 75 -46 81 -5 6 -39 71 -77 145 -37 74 -80 153 -95 176 -15
24 -27 46 -27 50 0 3 -6 14 -14 22 -8 9 -27 41 -43 71 -27 49 -33 55 -64 57
-19 0 -43 -1 -54 -4z"/>
<path d="M2176 1195 c4 -8 8 -15 10 -15 2 0 4 7 4 15 0 8 -4 15 -10 15 -5 0
-7 -7 -4 -15z"/>
<path d="M5860 1116 c-14 -13 -36 -38 -50 -55 -14 -18 -44 -40 -66 -50 -23
-11 -70 -40 -105 -65 -249 -181 -533 -376 -604 -415 -81 -44 -130 -74 -133
-82 -2 -5 -9 -9 -17 -9 -7 0 -19 -8 -26 -17 -12 -14 -12 -16 0 -8 10 5 12 4 7
-4 -4 -6 -11 -9 -16 -6 -4 3 -13 -2 -20 -10 -7 -8 -11 -15 -9 -16 50 -9 71 -7
87 9 52 49 59 53 85 43 20 -8 30 -6 48 10 12 10 26 19 30 19 4 0 14 3 23 6 13
5 16 -1 16 -31 0 -33 2 -36 22 -29 12 3 30 14 40 24 11 10 28 16 38 13 10 -3
29 2 42 11 12 9 30 16 39 16 9 0 37 11 63 25 26 14 53 25 60 25 7 0 25 9 38
20 14 10 45 22 69 26 24 4 50 11 56 16 22 18 77 -1 118 -40 22 -21 48 -43 59
-49 15 -9 11 -12 -30 -22 -27 -6 -88 -23 -135 -37 -89 -25 -385 -90 -477 -103
-29 -4 -56 -12 -61 -17 -7 -8 -101 -294 -101 -308 0 -3 551 -6 1225 -6 1084 0
1224 2 1219 15 -4 9 6 27 25 44 42 39 44 107 4 166 -38 56 -195 226 -206 222
-5 -1 -18 -25 -30 -52 -12 -28 -29 -56 -39 -63 -10 -7 -18 -19 -18 -27 0 -14
-51 -55 -67 -55 -4 0 0 5 10 11 15 9 11 15 -35 45 -29 20 -54 40 -56 45 -2 5
-7 9 -12 9 -5 0 -19 9 -32 20 -12 11 -33 28 -46 37 l-22 18 43 55 c23 30 55
76 70 102 15 27 32 48 38 48 6 0 -5 19 -24 43 -51 64 -132 195 -158 257 -43
104 -38 106 -122 -37 -83 -141 -140 -205 -204 -227 -23 -8 -72 -29 -108 -45
-37 -17 -72 -31 -79 -31 -7 0 -24 -8 -37 -19 -65 -50 -250 -131 -299 -130 -30
1 -25 4 38 24 40 13 90 34 110 48 36 23 38 27 40 87 2 34 8 72 14 84 17 30 17
324 0 353 -12 22 -17 22 -101 16 -100 -7 -159 11 -182 54 -15 29 -18 29 -49
-1z m990 -646 c0 -5 -15 -17 -32 -26 l-33 -16 30 26 c34 29 35 29 35 16z
m-105 -95 c0 -20 2 -39 5 -44 3 -5 33 -22 66 -39 34 -17 84 -45 113 -61 62
-37 66 -26 9 29 -23 22 -39 40 -35 40 5 0 37 -17 72 -37 48 -28 65 -43 65 -59
0 -19 -5 -21 -43 -20 -34 1 -70 16 -165 70 l-122 69 0 38 c0 32 8 45 31 48 3
1 5 -15 4 -34z"/>
<path d="M1804 1109 c-3 -6 -1 -14 5 -18 7 -4 9 -15 5 -26 -5 -13 -3 -16 7
-13 8 3 14 10 13 16 -1 7 -2 21 -2 32 -2 22 -17 27 -28 9z"/>
<path d="M1747 1075 c-4 -9 -1 -18 9 -22 22 -8 30 5 12 23 -14 14 -16 14 -21
-1z"/>
<path d="M3755 461 c-3 -5 -2 -12 3 -15 5 -3 9 1 9 9 0 17 -3 19 -12 6z"/>
<path d="M4700 264 c-302 -44 -335 -53 -475 -120 -162 -77 -194 -91 -275 -120
l-65 -22 450 -1 450 0 23 29 c29 37 69 144 78 209 8 60 28 57 -186 25z"/>
</g>
</svg>
